<svg viewBox="0 0 166 60" xmlns="http://www.w3.org/2000/svg">

<path d="M103.4 31.2c-.3-.1-.7-.3-1.1-.5-3.1-3 .9-6.5 5.3-8.5v-5.7c1.1.6 1.6.7 1.7.8l3.5-3.5-1.1-2.9c10.1-3.5 14.2-4.9 22.4-6.3l-1.5-1.4 2.5-1.4c5.5 1.9 10.7 2.3 9.7 7 .3-3.1-3.6-4.3-9.6-6.1l-1.2.8 2.2 1.8c-9.8 1.7-15.9 3.7-23.1 6.2l1 2.5-3.6 3.6c.6.1 6.9 2.3 13.4-2.3.1 0 .1-.1.1-.1-.2-.3-.6-.7-1.1-1.1 1.9.1 3.1 1.9 2.9 3.6h-.9c.1-.5 0-1.2-.3-1.6-5 3.7-10.9 4.3-15.9 2.5V23c-2.4.9-6.8 3.5-6.7 6.1.1 1.3.8 1.8 1.4 2.1z" fill="#F96C02"/><path d="M123.9 30.1c-5.5 2.8-10.7 5-18.7 5.3-10.4-.2-12.1-7.2-7.1-14.5 4.7-7.4 12.1-14 23.9-18.2 3.4-1.2 8.5-2.6 13.3-2.7 7-.1 13.8 2.1 13.3 8.9-.3 5.1-7.7 12.4-11.5 17.7-1.7 2.3-1.9 3.7.9 3.6 10.3-.7 19.7-4.3 28.4-8-5.9 4-36.2 19.2-36.4 8.8.1-1.3.7-2.7 1.6-4.1 1-1.5 2.3-3.1 3.7-4.6 2.1-2.4 7.2-8.1 8.9-11.5 2.9-6.5-3.6-6.8-9.1-8.8l-2.5 1.4 1.5 1.4c-8.2 1.4-12.3 2.7-22.4 6.3l1.1 2.9-3.5 3.5c-.1-.1-.6-.2-1.7-.8v5.7c-4.5 2-8.4 5.5-5.3 8.5.3.3.7.5 1.1.5 5.5 3 20.5-1.3 20.5-1.3zM32 45.6v-3.4h5v3.4h-5zm.2 14.1V47.5h4.7v12.2h-4.7zm55.2-6.4c0-1.1-.3-2-.9-2.7-.6-.7-1.5-1-2.5-1-1.1.1-1.9.3-2.5 1-.6.7-.9 1.6-.9 2.8 0 1.2.3 2.1.9 2.8.6.7 1.4.9 2.5.9s1.9-.3 2.5-1c.6-.6.9-1.6.9-2.8zM84 47.4c.6-.1 1.3-.2 1.9-.2 1.9 0 3.5.5 4.6 1.7 1.1 1.1 1.7 2.7 1.7 4.6 0 2.1-.5 3.7-1.7 4.8-1.1 1.1-2.6 1.7-4.5 1.7-.7 0-1.3-.1-2-.3l-1-.4c-.9-.5-1.7-1.1-2.3-1.9v1.3c0 .3-.1.7-.1.9h-4.7c.1-.5.1-.9.1-1.4 0-.5.1-.9.1-1.3V42.2h4.6v7c.7-.7 1.5-1.2 2.4-1.5.3-.2.5-.2.9-.3zm53.1 1.5c2.5 0 4.5 2.1 4.5 4.5 0 2.5-2 4.5-4.5 4.5s-4.5-2-4.5-4.5c-.1-2.4 2-4.5 4.5-4.5zm0 11.1c3.6 0 6.5-2.9 6.5-6.5 0-3.7-2.9-6.6-6.5-6.6s-6.6 2.9-6.6 6.6c0 3.6 3 6.5 6.6 6.5zm-24-2.2h2.1v1.9h-2.1v-1.9zm15.7.3c-.7.5-2 1.9-4.6 1.9-3.3 0-6.5-2.6-6.5-6.5s3.2-6.6 6.5-6.6c2.5 0 3.9 1.3 4.6 1.9-.4.6-.7 1.7-.9 2.1-1.3-1.7-2.8-1.9-3.7-1.9-2.5 0-4.5 2.1-4.5 4.5s2 4.5 4.5 4.5c1.4 0 2.7-.6 3.7-1.9.3 1 .7 1.6.9 2zm17.8 1.6V47.5h1.9v1.7c.4-.6.9-1.1 1.5-1.5.7-.4 1.4-.5 2.2-.5.9 0 1.6.2 2.2.5.6.4 1 .9 1.3 1.6.9-1.4 2.2-2.1 3.7-2.1 1.2 0 2.1.3 2.8 1 .7.7 1 1.7 1 3.1v8.3h-2.1V52c0-.9-.1-1.4-.2-1.8-.1-.4-.4-.7-.7-.9-.4-.2-.8-.3-1.3-.3-.9 0-1.5.3-2.1.9-.5.5-.9 1.5-.9 2.7v7.1h-2.1v-7.9c0-.9-.1-1.6-.5-2.1-.3-.5-.9-.7-1.7-.7-.6 0-1.1.1-1.6.5-.5.3-.9.7-1.1 1.3-.3.6-.3 1.5-.3 2.5v6.3l-2 .1zm15.8-14.9v-2.3h-.9v-.3h2.1v.3h-.9v2.3h-.3zm1.6 0v-2.6h.5l.6 1.9c.1.1.1.3.1.3 0-.1.1-.2.1-.4l.6-1.8h.5v2.6h-.3v-2.2l-.7 2.2h-.4l-.7-2.2v2.2h-.3zm-59.7 13.1c-.5.7-1.2 1.2-2.2 1.6-.2.1-.5.1-.7.2-.9.2-1.9.3-2.8.3-1.5 0-2.7-.3-3.6-1-.8-.6-1.3-1.5-1.3-2.7 0-.7.2-1.4.5-2 .3-.5.8-1 1.4-1.4.5-.3 1.2-.5 2.1-.7.8-.1 2-.2 3.7-.2h2.8v-.3c0-.7-.2-1.2-.6-1.5-.4-.3-.9-.5-1.7-.5-.2 0-.4.1-.5.1-.6 0-1.1.1-1.4.3-.4.2-.7.6-.7 1.1h-4.7c.1-1.3.9-2.3 2.1-3 1.1-.6 2.7-.9 4.8-.9h.6c2.3 0 4 .4 5.1 1.1 1.1.7 1.6 1.9 1.6 3.5v6.2c0 .3.1.7.1.9.1.2.1.5.2.7h-4.3c-.1-.2-.2-.5-.3-.7 0-.2-.1-.5-.1-.8v-.3h-.1zm-2.9-.6c.8-.1 1.5-.3 1.9-.7.5-.5.9-1.2.9-2.1v-.3h-.4c-.9 0-1.7 0-2.4.1s-1.3.1-1.7.3c-.7.2-1.1.7-1.1 1.3 0 .4.2.7.6 1 .4.2 1 .3 1.7.3l.5.1zm-33 .6c-.5.7-1.3 1.2-2.3 1.6-.2.1-.4.1-.7.2-.8.2-1.7.3-2.8.3-1.5 0-2.7-.3-3.5-1-.9-.6-1.3-1.5-1.3-2.7 0-.7.1-1.4.5-2 .3-.5.8-1 1.4-1.4.5-.3 1.2-.5 2.1-.7.8-.1 2-.2 3.7-.2h2.8v-.3c0-.7-.2-1.2-.6-1.5-.4-.3-.9-.5-1.7-.5-.2 0-.3.1-.5.1-.6 0-1.1.1-1.4.3-.4.2-.6.6-.7 1.1h-4.7c.2-1.3.9-2.3 2.1-3 1.1-.6 2.7-.9 4.8-.9h.6c2.3 0 4 .4 5.1 1.1 1.1.7 1.7 1.9 1.7 3.5V59c.1.2.1.5.2.7h-4.3c-.1-.2-.2-.5-.2-.7-.1-.2-.1-.5-.1-.8l-.2-.3zm-2.9-.6c.9-.1 1.5-.3 1.9-.7.6-.5.9-1.2.9-2.1v-.3h-.4c-.9 0-1.7 0-2.4.1s-1.2.1-1.6.3c-.8.2-1.1.7-1.1 1.3 0 .4.2.7.5 1 .4.2 1 .3 1.8.3l.4.1zm-14.1-4c0-1.1-.3-2-.9-2.7-.6-.7-1.4-1-2.5-1-1.1.1-1.9.3-2.5 1-.6.7-.9 1.6-.9 2.8 0 1.2.3 2.1.9 2.8.6.7 1.5.9 2.5.9h.1c1.1 0 1.9-.3 2.5-1 .5-.6.8-1.6.8-2.8zm-3.3-5.9c.6-.1 1.2-.2 1.9-.2 1.9 0 3.5.5 4.6 1.7 1.1 1.1 1.7 2.7 1.7 4.6 0 2.1-.5 3.7-1.6 4.8-1.2 1.1-2.7 1.7-4.6 1.7-.7 0-1.4-.1-2-.3-.3-.1-.7-.2-1-.4-.9-.5-1.7-1.1-2.3-1.9v.4c0 .3 0 .6-.1.9 0 .3-.1.7-.1.9h-4.7c.1-.5.1-.9.1-1.4.1-.5.1-.9.1-1.3V42.2h4.7v7c.7-.7 1.5-1.2 2.3-1.5.3-.2.6-.2 1-.3zm-36.4-5.2h3.4l8.5 17.5H18l-1.5-3.5H6.9l-1.7 3.5H0l9.1-17.5h2.6zm0 10.5h3.2l-3-6.7-.2.3-3.1 6.4h3.1zm12.7 7V42.2h4.7v17.5h-4.7zm-12.1-43h-1.2v4.7h2.5v-4.7h-1.3zm66.8 10.2h2.3c.7 0 1.3-.2 1.5-.6.3-.3.5-1.2.7-2.5.5.6 1.2 1 2 1.1-.5 1.7-.9 2.7-1.3 3-.4.3-1.1.5-2.3.5H71.5c-1.9 0-2.9-.8-2.9-2.4V14.4c0-.9-.1-1.9-.1-3h14.6c-.1 1.2-.1 2.8-.1 4.8s0 3.6.1 4.9h-1.7v-1.3H70.3v5.4c0 1.2.7 1.8 1.9 1.8h6.9v-.1zm0-8.7h2.3v-5.3h-4.7v5.3h2.4zm-6.4 0H75v-5.3h-4.7v5.3h2.4zm-15.3 8.7h2.3c.7 0 1.3-.2 1.5-.6.3-.3.5-1.2.7-2.5.5.6 1.2 1 2 1.1-.5 1.7-.9 2.7-1.3 3-.4.3-1.1.5-2.3.5H49.9c-1.9 0-2.9-.8-2.9-2.4V14.4c0-.9-.1-1.9-.1-3h14.6c-.1 1.2-.1 2.8-.1 4.8s0 3.6.1 4.9h-1.7v-1.3H48.7v5.4c0 1.2.7 1.8 1.9 1.8h6.8v-.1zm0-8.7h2.3v-5.3H55v5.3h2.4zm-6.3 0h2.3v-5.3h-4.7v5.3h2.4zM35.7 27h3.5c.9-.1 1.9-.1 3.1-.1v1.6c-1-.1-2-.2-3.1-.2H26.5c-1 0-2.2.1-3.5.2v-1.6c1.3 0 2.5 0 3.5.1h5.1v-2.8h-3.8c-.8 0-1.8 0-2.9.1v-1.5c1.1.1 2.1.1 2.9.2h3.8v-2.4h-6.3c.1-1.1.1-2.5.1-4.1 0-1.5 0-3.3-.1-5.2h14.6c-.1 1.1-.1 2.7-.1 4.7s0 3.5.1 4.7h-6.6v2.4h4.1c1-.1 2-.1 3-.2v1.5c-1.2-.1-2.2-.1-3-.1h-4.1V27h2.4zm0-7.8h2.5v-2.7h-4.9v2.7h2.4zm0-3.8h2.5v-2.9h-4.9v2.9h2.4zm-6.3 3.8h2.3v-2.7h-4.5v2.7h2.2zm0-3.8h2.3v-2.9h-4.5v2.9h2.2zm-17.1 7.4h-1.2v2.1H9.5c.1-.9.1-2.5.1-4.8s0-3.9-.1-4.8h5.7c-.1 1.1-.1 2.5-.1 4.4s0 3.3.1 4.4h-1.6v-1.3h-1.3zm0-10.3h4.5v13.2c0 .7-.1 1.1-.5 1.2-.1.1-.8.1-1.8.1.4.6.6 1.3.7 1.9 1.2-.1 2-.3 2.5-.6s.7-.9.7-2.1V12.5c.5 0 1.3 0 2.3.1V11h-9.3c-.7 0-1.5 0-2.5-.1v1.6c1.3-.1 2.1-.1 2.5-.1h.9v.1zm-7.4 5.1c1.1 1.7 1.8 2.9 2 3.7.2.9.1 1.4-.2 1.6-.3.2-1 .4-1.9.5.3.6.6 1.2.7 1.8.8-.2 1.6-.5 2.3-1 .7-.5 1-1.3.9-2.3-.1-1-.8-2.5-2.2-4.4.7-2.2 1.3-4.3 1.9-6.5h-6c.1 1.1.1 4 .1 8.5s0 7.7-.1 9.5h1.7V12.5h2.3c-.6 2-1.1 3.7-1.5 5.1z" fill="#F96C02"/></svg>