<svg viewBox="0 0 200 60" id="bank-of-china" xmlns="http://www.w3.org/2000/svg"><path d="M28.3 1.7C12.7 1.7 0 14.4 0 30c0 15.6 12.7 28.3 28.3 28.3 15.6 0 28.3-12.7 28.3-28.3 0-15.6-12.7-28.3-28.3-28.3zM6.1 30C6.1 18.9 14.3 9.7 25 8v10.4h-4.6c-3.5 0-5.6 2.6-5.6 6v10.9c0 3.5 2.9 6.2 6.3 6.2H25V52C14.3 50.4 6.1 41.1 6.1 30zm15.4 5.4s-.3 0-.5-.3-.1-.4-.1-.4v-9.4s0-.3.2-.5.5-.2.5-.2H35s.2 0 .5.1c.2.1.3.6.3.6V35s-.1.3-.2.4c-.1.1-.3.2-.3.2h-3.5l-10.3-.2zm10 16.6V41.5h4.2c3.5 0 6-2.6 6-6.1V24.5c0-3.5-2.8-6-6.2-6h-4V8c10.7 1.6 19 10.8 19 22s-8.2 20.4-19 22z" fill="#b30d3a"/><path d="M115.9 55.8s-2-.1-2.3 0c-.2 0-.5-.4-.5-.4-.8-1-3-4.1-3.2-4.3-.1-.1-1 .6-1 1.2v1.9c0 .6.1.9.3 1 .3.3 1 .4 1 .3.3.1.1.3.1.3H106s-.1-.2.2-.3c0 0 .5-.1.8-.5.1-.2.3-.5.3-1.1v-6.5c0-.4-.1-.8-.3-1-.2-.2-.4-.3-1-.4 0 0-.4-.3 0-.4h3.9s.4.1 0 .3c-.3.2-.5 0-.8.3-.2.2-.3.5-.3 1.1v3.2c0 .1.1.3.2.3.2 0 .3-.2.4-.3.4-.4 1.1-1.1 1.7-1.6 1.1-1 1.6-1.5 1.8-1.8.2-.3.3-.8.2-.9-.2-.2-.5-.2-.7-.3 0 0-.3-.2 0-.3h3.5s.1.3-.1.4c-.5 0-.7.1-1 .3-.3.1-.9.5-1.4 1 0 0-2.6 2.2-2.5 2.5.1.4 1.6 2.1 2.6 3.5.4.6.9 1.3 1.1 1.5.2.2.6.5.9.5.6.1.4.5.4.5zm-11.7-10.2h-3.4c-.2.1-.2.3 0 .3.2.1 1 .2 1.4.6.3.3.2.8.2 1.3v4.6l-.1.3c-.1.1-.4-.2-.4-.2l-6.3-7H93c-.3.1 0 .4 0 .4.3 0 .7.1 1 .4.3.2.5 1 .5 1.6v5.7c0 .8-.1 1-.3 1.2-.2.2-.7.6-1 .7-.1 0 0 .3 0 .3h3.9s-.1-.3-.2-.3c-.2 0-.8-.2-1-.3-.5-.3-.7-.8-.7-1.6v-5.2c0-.3.1-.5.3-.3.4.4 7.3 7.9 7.3 7.9h.3v-8.1c0-.8.1-1.2.3-1.5.2-.2.6-.3.9-.4-.1-.1.1-.3-.1-.4zM92.3 55.7l-4.2.1s-.1-.2.1-.3c.2-.1.8-.4.9-.8 0-.2 0-.6-.2-1.1-.1-.4-.5-1.1-.7-1.3-.2-.1-1-.1-1.7-.1s-1.5 0-1.8.1c-.3.2-.7 1.6-.8 1.8-.1.2 0 .7.2.9.3.3 1 .4 1.2.5l.1.3h-3.7l.1-.3c.1-.1.6-.2.8-.5.2-.3 4.3-9.6 4.3-9.6l.3-.1L91 54c.3.6.4 1 .6 1.1.2.1.5.3.8.3 0 .1-.1.3-.1.3zm-5-6c-.3-.6-.7-1.8-.9-1.8-.1 0-.5 1-.8 1.7-.3.7-.7 1.7-.6 1.8.1.1.8.1 1.4.1.7 0 1.4 0 1.5-.1.1-.1-.3-.8-.6-1.7zm-6.5 2.7c0 1.7-.9 2.7-1.8 3-.6.2-1.3.3-2.2.3H72v-.3c.5-.1.9-.3 1-.5.2-.2.2-.3.2-.9v-6.8c0-.4-.1-.6-.3-.9-.5-.5-1-.2-1.1-.4-.1-.1 0-.4 0-.4h4.3c1.2 0 2 .1 2.8.4.6.3 1.2.9 1.2 1.9 0 1.4-1.1 1.9-1.6 2.2.9.4 2.3.8 2.3 2.4zm-5.7-2.8c-.1.6 1.5.5 1.5.5 1.3 0 1.9-.2 1.9-1.9 0-.7-.4-1.3-.8-1.7-.3-.2-.7-.5-1.3-.5-.8 0-1.3.1-1.3.8v2.8zm3.2 1.7c-.3-.3-1.1-.6-1.8-.6-.9 0-1.5-.1-1.5.9v2.5c0 1.4 1.7 1.2 1.7 1.2 1.4 0 2-.8 2.2-1.6.3-1.2.1-1.9-.6-2.4zm77.8 1.9c-.5.4-1 1-1.4 1.2-.7.4-1.1.6-1.9.6-1.1 0-1.9-.4-2.7-1.1-.8-.8-1.4-2.3-1.4-3.7 0-1.1.3-2.3.9-2.9.6-.8 1.5-1.3 2.7-1.3 1.1 0 2.1.6 2.6 1.2.4.4.9 1.1 1.1 1.8.2.3.4 0 .4 0l-.2-2.9s-.1-.6-.3-.2c-.1.2-.2.5-.3.5-.2 0-.7-.2-1.2-.5s-1.4-.5-2-.5c-1.6 0-2.9.5-3.9 1.6-.9 1-1.4 2.3-1.4 3.8s.5 3 1.3 3.7c1.4 1.3 2.4 1.4 4 1.4.7 0 2.1-.5 2.6-.9.7-.6 1.6-1.5 1.6-1.7-.1 0-.2-.3-.5-.1zm19.8 2.4c-.6-.1-.8-.2-1-.3-.2-.1-.4-.5-.4-1.1v-6.8c0-.4 0-.8.2-1.1.1-.2.4-.3.7-.3 0 0 .4-.2 0-.3h-4.2c-.3.1 0 .3 0 .3.6 0 1 .2 1.3.5.2.2.2.7.2 1.1v6.6c0 .6-.1.9-.3 1-.2.1-.5.3-.7.4 0 0-.3.2 0 .3h4.1c.1-.1.5-.3.1-.3zm-6.4-.1c-.6-.1-.7-.3-.9-.5-.2-.2-.3-.3-.3-.9v-6.7c0-.6.1-.9.2-1.1.2-.2.3-.3.7-.3.3 0 .1-.3.1-.3h-4.2s-.3.2.1.3c.6 0 .9.1 1.1.3.2.2.3.6.3 1.1v2.1c0 .3-.1.6-.7.6-.5 0-3.5-.1-4.2 0-.5 0-.4-.5-.4-.5v-2.2c0-.6.1-.9.3-1.1.2-.2.4-.3.7-.3 0 0 .4-.3-.1-.3h-4c-.7.2.1.4.1.4.6 0 .9.1 1.1.3.1.2.2.5.2 1.1v6.3c0 .7-.1.9-.3 1.1-.1.2-.8.6-.8.6-.4.1-.1.3-.1.3h4.5s.4-.3-.1-.3c-.6-.1-.9-.2-1-.4-.2-.2-.5-.6-.5-1.2v-2.7c0-.4.2-.6.4-.6h4.5c.3-.1.4.3.4.5v2.7c0 .3-.1.8-.2 1-.2.3-.6.4-.6.4-.6.2-.1.4-.1.4l3.9-.1c.4.3.2 0-.1 0zm19.1-9.8h-3.3c-.4.1 0 .3 0 .3.5.1.8.3 1.1.5.1.1.5.3.5 1v4.8c0 .6-.2.7-.7.1-1.7-1.9-5.7-6.4-6-6.6 0-.1-2.6 0-2.6 0-.4.1.1.4.1.4.2.2.5.1.7.2.2.1.5.4.6.9l.1 6.4c0 .8-.1 1-.3 1.3-.3.4-.9.6-.9.6-.3.1-.2.4-.2.4h3.9s.1-.4-.3-.3c-.6-.1-.8-.2-1-.4-.2-.3-.5-.7-.5-1.6v-5.2c0-.2 0-.2.1-.3.2-.1.3.1.3.1.8.8 7.1 7.8 7.1 7.8s.3.2.4-.2v-7.8c0-.8.1-1.3.3-1.5.2-.2.6-.5.8-.5 0-.2 0-.4-.2-.4zm11.2 10.1h-4.2s-.3-.2 0-.3c.2-.1.8-.3 1-.7 0-.2 0-.6-.2-1.1-.1-.4-.5-1.1-.7-1.3-.2-.1-1-.1-1.7-.1s-1.5 0-1.8.1c-.3.2-.7 1.6-.8 1.9-.1.2 0 .7.2.9.3.2 1 .4 1.2.5l.1.3h-3.7l.1-.3c.1-.1.6-.2.8-.5.2-.3 4.3-9.6 4.3-9.6l.3-.1 3.8 8.7c.3.6.4 1 .6 1.1.2.1.5.3.8.3l-.1.2zm-5.1-6c-.3-.6-.7-1.8-.9-1.8-.1 0-.5 1-.8 1.7-.3.7-.7 1.7-.6 1.8.1.1.8.2 1.4.1.7 0 1.4 0 1.5-.1.2-.1-.2-.8-.6-1.7zm-54-4.1c-.2-.1-1.6 0-3.1 0h-4.4c-.3.1.1.4.1.4.6.1 1 .2 1.2.4.2.3.3.5.3 1.1V54c0 .7-.1.9-.3 1.1-.2.2-.8.4-.8.4-.3.1-.1.3-.1.3h4.4s.2-.3-.1-.3c-.6-.1-1-.4-1.2-.5-.2-.2-.2-.5-.3-.8v-2.7c0-.2 0-.7.5-.7h1.3c.4 0 .7.2.8.4.2.2.3.4.4 1 0 0 .1.3.3.1V49c0-.4-.3-.3-.4-.1-.1.3-.3.6-.5.9-.1.1-.4.4-.6.4 0 0-1.5 0-1.8-.1-.1 0-.1-.3-.1-.4v-2.8c0-.2.1-.4.1-.4.1-.1.1-.1.3-.1h2.3c.2 0 .6.1.8.3.1.1.4.6.4.9 0 .2 0 .5.2.5.1 0 .3-.3.2-.5.2-.3.3-1.8.1-1.9zm-10.5 1c1 1 1.5 2.2 1.6 3.8 0 1.7-.5 3-1.6 4-.9.9-2.3 1.4-3.6 1.4-1.4 0-2.8-.4-3.8-1.4-1-1-1.3-2.3-1.3-3.9s.6-2.8 1.6-3.8c.9-.9 2.3-1.3 3.7-1.3 1.3 0 2.5.3 3.4 1.2zm-.2 4.1c0-1.7-.5-2.8-1.1-3.6-.7-.9-1.5-1.1-2.4-1.1-.9 0-1.8.2-2.4.9-.7.7-.9 1.9-1 3.6 0 1.6.8 3.1 1.2 3.7.8 1 1.4 1.2 2.6 1.2.8 0 1.6-.5 2.3-1.2.6-.8.8-1.9.8-3.5zm-6-36.1c-.2-2.9-1.2-6.4-1.7-7.7-.5-1.3-1.8-3.5-3-4.1-.3-.2-.8-.5-1.5-.4-.3.1-.8-.1-1.1-.1-.3.1-.6.1-.9.3-.1.1-.7 0-1.1.1-.2.1-1 .1-1.1.1-.3.1-1 .3-1.2.3-1 .4-3.6 1.4-4.8 2.9-1.4 1.7-1.9 2.4-1.8 2.6.2.4.5 1 .5 1.4 0 .1.4.3.6.3.6-.1.5-.1.8-.2.1-.1.2-.3.1-.7-.1-.2-.4-1-.1-1.6.1-.2.2-.7.6-1.1.4-.4.9-1 1.4-1.3.4-.2 1.7-.8 2.9-1.2 1.3-.4 2.9-.7 3.3-.7.5 0 1.4 0 2.1.3.7.3 2.4 2 3 3.6.5 1.1 1.2 5.6 1.2 6.3 0 .4.1 1.2.2 1.6 0 .3.2.7.1.9-.1.2.2.3.2.5 0 .4-.1 1.4-.1 2.2.1.6.1 1.8 0 2.1-.1.2.2.4.1.5-.1.1 0 .5-.1.9-.1.3.1.4.1.6 0 .2-.2.4-.2.6 0 .1.1.3 0 .6-.1.2 0 .3-.1.5-.1.3 0 1.2-.1 1.8-.2.6 0 .7-.1 1.1-.1.5-.2.6-.3 1-.1.4-.8.9-1.1 1.2-.2.2-.6.6-.8.6-.2.1-.2 0-.6.2-.1 0-.3-.2-.5-.1-.2 0-.5-.1-.7-.1-.3-.1-.4-.2-.8-.2-.3 0-.7-.3-1.2-.4-.4 0-1.1-.2-2-.2-.6 0-1.3-.2-1.5-.3-.1-.1 0-.3.2-.4.3-.1.6 0 1-.3.1-.1.6 0 .8 0 .3 0 .5-.3 1.2-.2.4.1.8-.2 1.5.1.4.2.6.1 1 0 .3-.1.4-.5.6-.7.2-.2.4-.5.5-1.1.1-.2.3-.4.1-.8-.2-.3-.6-.5-.7-.4-.3.2-.9 0-1.3.2-.3.1-.5.5-.7.5-.2 0-1.3.3-1.7.4-.4.1-.7.2-1.1.3-.2 0-.4-.1-.6.1-.3.2-.3.2-.4.3-.2.1-.6 0-1 .1-.3.1-.4.2-.6.2-.1 0-.4-.1-.7 0-.4.1-.6.3-.7.3-.3 0-.7 0-.9.1-.3.1-.8.3-1 .2-.1-.1 0-.4.2-.4.2-.1.5-.5.7-.7.2-.2.7-.5.9-.7.2-.1.5-.5.7-.7.1-.1 1-.8 1.2-.9.3-.2.5-.5.7-.8.1-.2.4-.3.5-.4.2-.1.5-.6.8-.8.1-.1.4.1.5.2.1.2.9 1.2 1.3 1.5.4.3.8.7 1.4.9.1 0 .2.1.5.1.2 0 .2-.2.2-.3.1-.2 1-1.5 1.1-2.2.1-.6.6-2.4.6-2.8 0-.2-.1-.5-.1-.7 0-.1-.2-.2-.3 0 0 .1.1.4.1.7 0 .2-.4 1.4-.7 2-.2.4-.6 1.3-1.1 1.7-.1.1-.3.2-.7.2-.3 0-.9-.4-1.2-.6-.2-.2-.6-.9-.7-1.1-.1-.1.1-.4.2-.5.2-.2 1.6-1.8 2.1-2.4.3-.4 1.2-1.5 1.5-1.9.2-.3.1-.6.2-.7.1-.2-.1-.2 0-.3.1-.1 0-.2 0-.4s-.2-.1-.2-.2v-.4c0-.1-.2-.2-.3-.1-.1.1-.6.8-.8 1.1-.2.3-.9 1.6-1.3 2.1-.7.9-1.5 2.2-1.8 2.4-.2.1-.2.1-.4-.1-.1-.1 0-.3 0-.4.1-.2.5-.8.7-1 .2-.2.2-.4.2-.6 0-.1-.1-.4 0-.6.1-.3.1 0 .1-.4 0-.2 0-.3-.2-.6-.3-.3-.6-.5-.9-.8-.2-.2-.3-.5-.4-.6-.2-.2-.2 0-.4-.3-.1-.2-.1-.1-.2-.4-.1-.1-.3-.1-.4-.4 0-.2-.2-.2-.3-.4-.2-.4-.2-.7-.1-.9.1-.2.1-.1.3-.3.1 0 0-.3.2-.4.1-.1.3-.2.4-.4.1-.2.3-.7.5-1 .2-.3 0-.4.2-.7.2-.3.2-.2.2-.3 0-.1 0-.1-.2-.2-.1 0-.3-.5-.4-.6-.3-.2-.4-.1-.6 0-.5.2-1.6.6-1.8.8-.1.1-.3.1-.5.1s-.3-.3-.4-.5c-.1-.2-.2-.5-.3-.7-.1-.2-.4-.8-.7-1.1-.1-.2-.4-.5-.5-.4-.2.1-.2.4-.1.4.1.1.4 1.2.4 1.5.1.5.3 1 .3 1.2 0 .2.1.4-.1.6-.1.2-.8.9-1 1.4-.2.4.1.7.5.6.4-.1.9-.6 1.2-.6.2 0 .3.1.3.3 0 .2.3.3.2.4 0 .2-.1.3 0 .4.1.1.3.2.3.2-.1.2-.1.4-.1.6 0 .1-.5.7-.7.8-.2.1-.3.4-.5.7-.1.1.1.3 0 .4-.1.2-.2.1-.3.2-.1.1 0 .2-.2.7-.1.2.1.3 0 .5 0 .2-.1.8.3.7.2 0 .2-.3.4-.5.1-.1.4-.1.6-.4.2-.2.3 0 .3.1.1.2 0 .2-.1.3 0 0-.3.4-.6.6-.1 0-.2.4-.4.6 0 .1-.3.2-.4.4-.2.3-1 1.2-1.1 1.4-.4.5-.7 1.4-.9 1.7-.4.5-.1.9-.2 1.3-.2.5-.2.5 0 .6.2.2.3.1.5 0 .1 0 .7-.3 1.3-.6.4-.2 1.2-.6 1.6-.9.4-.3 1.2-.8 1.9-1.2.4-.2.8-.8 1.2-1 .1-.1.3-.1.3.1.1.2.1.4 0 .5-.1.2-1 1.1-1.6 1.6-.3.3-1.2 1.4-1.5 1.7-.7.6-2.1 1.9-2.5 2.2-.3.2-.6.6-1 .7-.3.1-1.4.1-1.5 0-.2-.1-.2-.1-.4.2-.2.3-.1.5-.4.5-.3 0-.3-.3-.4-.6-.1-.3 0-1.3-.1-1.8-.1-.9-.1-.4-.1-.9 0-.3.1-.7-.1-.7s-.2.6-.5.7c-.2 0-.2-.4-.2-.6-.1-.3-.1-1.8 0-2.3.1-.5 0-2.9.1-3.3.1-.3-.2-.5-.1-.7.1-.2.1-.4.2-.8.1-.3-.1-.3 0-.6.1-.2 0-.4 0-.6.1-.1-.1-.3 0-.5s.1-.3.2-.6c.1-.2 0-.5 0-.7.1-.2.2-.5.2-.7 0-.2 0-.5.1-.8 0-.2.2-1.1.3-1.4.1-.2.3-1.3.3-1.5 0-.2-.1-.6-.2-.7-.1-.1-.4.1-.4.2-.1.4-.6.9-.7 1.4-.1.5-.3 1.9-.6 2.5-.1.2-.3 1.9-.4 2.5-.1.6-.3 2.3-.3 2.5 0 .3.2.4.1.6-.2.3-.2.4-.1.8v.8c-.1.3-.1.4-.1.7 0 .2.2.2.1.4-.2.4-.1 1.1-.2 1.4-.2.5.3.5.1.9-.2.4-.1.2 0 1.1.1.9.3 2.7.4 3.4 0 .4.1 1.6.2 2.1.1.6 1.1 1.6 1.5 1.7.4.2.8 0 1.2 0 .4 0 .4-.5.3-.8-.1-.3-.7-.5-.5-.8.1-.3 0-.1-.1-.4 0-.3-.2-.1-.1-.4.1-.4-.1-.3 0-.4 0-.1.1-.3.2-.3.2 0 .3-.1.4.1.1.1 2 .3 3.3.4 1.8.1 4.7.4 5.6.9.9.5 3.1 1.3 3.9 2.1.5.5.7.9.9.9.2 0 1.6-1.3 2-1.6.4-.4 2.4-1.8 2.9-2.7.3-.4.3-1.7.5-2.4.1-.6.1-3.7.3-5-.6-1-.5-5.9-.6-7.7zm-12.3-3.9c.4-.2.2-.2.3.2.1.3-.1 0-.2.5s-.1.4-.4.6c-.3.2-.3 0-.4-.3-.1-.2 0-.1-.1-.5-.1-.3.3-.2.8-.5zm.4 9.1c-.4.4-.9.4-1.3.8-.5.4-.7.3-1.2.6-.4.3-.4.2-.8.1-.4-.2-.4-.3-.1-.6.3-.3.2-.1.4-.3.2-.2-.2-.2 0-.4s.2.1.5-.3.2-.4.4-.7c.1-.2.3-.5.6-.7.4-.2.7-.6.9-.7.1-.1.4.3.5.7.2.4.2.3.3.8.2.5.1.3-.2.7zm.9-1.1c-.3.2 0 .1-.3-.2-.3-.3 0-.7-.3-.9-.3-.2-.3-.2-.2-.6.1-.4.3-.3.4-.4.1-.1.1.1.4.5.3.3.1.4.3.7.2.3.2.1.1.5 0 .2-.1.2-.4.4zm32.7-8.2c.1.3.3.8.2 1-.1.3-.5.3-1 .4-.2 0-.6.2-.8.3-.4.2-.8.6-1 .7-.2.2-.5.2-.6.2-.1 0-.1-.3.1-.4.3-.3.6-1.1.5-1.4 0-.2-.2-.2-.2-.7 0-.3-.1-.8 0-1.1.2-.3 1.2-.4 1.7-.3.4 0 .9.9 1.1 1.3zM82 36.6c.1-.1-.5-.3-.6-.5-.1-.2-.2-.4-.3-.7-.1-.3-.3-.3-.4-.7-.1-.4-.2-1.1-.3-1.4v-.8c0-.3-.3-1.4-.3-1.8v-1.4c.1-.3.1-.4.3-.4.2 0 .3.2.2.4 0 .2.2.7.1 1.2-.1.7 0 .5 0 .7 0 .1 0 .4.1.9.1.4.1.9.1 1.1-.1.4.3.7.3 1 0 .4-.2.5.1.9.3.5.3.3.4.6 0 .2.3.2.3.3.1.3.1.5.4.4.2 0 .4-.4.5-.7.1-.1.3 0 .5 0 .1 0 .1-.3.4-.4.2-.1.5-.1.6-.3.1-.2.2-.4.2-1.2-.1-.8-.2-1 0-2.5 0-.4.3-.9.2-1.1 0-.2.2-.4.2-.5 0-.1.2-1 .2-1.3 0-.1.3-.4.3-.7.1-.4.2-1.5.3-1.8.3-1 .2-.6.6-1.6.3-.7 0-1.4.5-2.3.2-.5.1-1.1.5-1.3.3-.2.6-.1 1.1-.4.6-.3.4-.7.6-1.3.2-.4.7-.7.6-1.2-.1-.6-.9-.2-1.1-.4-.3-.3 1.2-1.7 2-2.7.8-1 .8-1.4 1.3-1.9.5-.7.8-.9 1.2-1.9.5-1.2.7-2.2.6-2.5-.1-.2-.8-.2-1.2-.2-.9 0-2.3 0-3.1.1-1.3.2-2.1.9-2.5.8-.3-.1-.2-.6-.3-1 0-.3-.2-1-.6-1.5-.4-.6-1.1-1.4-1.5-1.7-.2-.2-.9-1-1.2-1.3-.3-.4-.6-.6-.8-.7-.4-.4-1-.4-1.1-.2-.3.3-.9 1-1 1.7-.1.7 0 .8 0 1.3.1.6 0 1.2-.2 2-.1.2 0 .5-.1 1.1 0 .2-.1.9-.2 1.2v1.1c0 .2-.2.5-.1.6 0 .1.2.2.1.4-.2.4-.1.6-.1.7 0 .1-1 .7-1.5 1.1-.5.3-1.2.9-1.4 1-.3.2-1.3.9-1.7 1.1-.4.3-.9.7-1 .7-.1 0-.5-.6-.7-.7-.2-.1-.9-.8-1.4-1.3-.5-.5-1-1.5-1.3-1.4-.4.1-.5.6-.6 1-.1.4-.1 2.4.4 3.4.4.7 1.2 4.5 3.5 6 1.4.9 3.2 1.4 3.5 1.3.3-.1.2-.8.3-1.1 0-.2.3-.5.5-.5s.5.2.5.7c0 .8.3 4.4.5 5.8.1 1.3.4 1.9.6 3.1.1.7.3 2.7.5 3.2.1.3.7 1 1.1 1 .1-.2.3-.5.4-.6zm4.3-24.4c0-.2.8-.8 1.2-1 .4-.2.7-.6 1-.8.5-.2.9-.2 1.2-.2.4 0 .9-.2 1.2.1.2.3.1.5.1.8-.1.2-1.3 2.1-1.8 2.8-.6.7-2.1 2.4-2.2 2.5-.2.1-.3-.1-.4-.5 0-.3-.1-.6 0-.7.1-.2 0-.3-.1-.5 0-.2-.2-.9-.2-1.4-.1-.4 0-.8 0-1.1zm-4.2 19c0-.4.4-.7.4-1.1 0-.4-.1-.4-.1-.8s.2-.7.3-.7c.1 0 .2.1.2.3.1.3 0 .3.1.5 0 .3-.1.3 0 .5.1.3 0 .4.1.7 0 .4.1.8 0 1.1-.1.3 0 .4 0 .6 0 .3-.2.6-.2 1 0 .3.3.6.3 1 0 .2-.1.2-.3.2-.2 0-.5-.2-.6-.4-.1-.1-.3-.7-.3-.9 0-.3.1-.7.1-1 .1-.4 0-.7 0-1zm-2.8-12.8c0 .3-.1.4-.1.7 0 .2.1.4.1.5 0 .1 0 .2-.1.5 0 .2.1.4-.1.7-.2.3-1 .9-1.2 1-.3.1-.1-.4-.5-.7-.4-.3-.5-.7-.7-1-.2-.4-.2-.5-.4-.9-.3-.3-.3-.6-.1-1 .1-.1.6-.4.9-.6.2-.1.6-.4.8-.6.5-.4.4-.3.9-.6.2-.1.5-.2.5.2v1.8zm107.2-5.5c.5-.2.6.3.7.3.4 0 .8.1 1.4-.1.4-.1 3.1-1.5 4-1.7 1.6-.4 3.8-1 4.5-.9.3 0 .3.2 0 .3-.3.2-.4.6-.6.8-.2.2-.1.6-.2.8-.2.2-.4.3-.7.3h-.7c-.3 0-.9.4-1.2.5-.1 0-.3-.2-.5-.2-.5-.1-2.3.6-3 .9-.7.3-2.1 1-2.7 1.7-.3.3-.5.8-.9.5-.4-.2-.5-1.1-.6-1.5-.1-.4-.1-1.4.5-1.7zm-8.8 18.8c-.3-.3-.6-.4-.8-.7-.2-.3-.2-1.8-.1-2.4.1-.6.2-.9.3-1.4.1-.3.3-1.4-.1-1.5-.2 0-1.1.4-1.6.7-.5.3-1.1.6-1.4.9-.3.3-.5.8-.5 1.1 0 .3-.3.6-.4.5-.3-.2-.6 0-.9 0-.3.1-.5-.2-.9-.4-.6-.2-.3-.1-.9-.5-.3-.3-1.1-1.4-.8-2.2.2-.4 0-.6.4-1 1-1 1.5-1.5 2.5-2.7.6-.6 1.5-1.6 2.1-2.1.2-.2.4-.5.6-.9.1-.3.7-.7.3-1-.4-.3-1-.3-1.3-.2-.3.1-.5-.2-.8-.4-.3-.2-.7.1-.9-.1-.3-.2-.4-.4-.7-.6-.3-.2-.7-.4-.5-.9.2-.4 0-.9.4-1.2.5-.4.8-.8 1.2-1 .7-.6 2.5-2.7 3.7-4.1 1.3-1.5 3.7-5 4.6-6 .2-.2.1-.7 1.1-1.2.6-.3 1.1-.2 1.6-.2.4.1 1.1 1.9 1.6 2.7.1.3.2.7.3 1.4 0 .3.3.9.3 1.6 0 .4.1 1-.1 1.3-.1.2-.4.4-.4.7 0 .2-.3.6-.5.7-.3.3-.4 1-.6 1.2-.3.4-1.1.4-1.7.6-.4.1-.9.4-1.4.7-.4.3-1.3.6-1.8 1-.4.3-1.3 1.2-1.6 1.4-.2.1-.5.4-.2.6.3.3 1.1.1 2.2.6.7.3 1.4.8 1.8 1.4.3.5.2 1-.2 1.2-.3.2-.5.7-1.1 1.2-.3.3-.5.9-1 1.3-.4.3-1.7 1.7-2.2 2.1-.3.2-.3.6.2.7.4.2 1.7 1.1 2.2 1.7.5.7.7 2.1.7 3.3.1.8-.5 1.9-.7 2.7-.1.4-.2.6-.7.5-.1 0-.4-.3-.6-.6 0-.1-.5-.3-.7-.5zm-63.5-21c-.1-.2-.1-.4-.1-.5v-.4c0-.1-.2-.4-.1-.6.1-.1.2-.4.3-.5.1-.1.4-.1.7 0 .2 0-.1 0 .6-.1.4 0 .6.2.9.4.8.5 1.3.6 1.5.9.1.2.3.6.2.9 0 .3-.1.7-.4 1-.3.2-.4.5-.6.6-.1.1-.1.5-.3.6-.3.1-.5-.1-.8-.1-.4 0-.6.2-.7.1l-.3-.3c-.1-.1-.3 0-.3-.2s-.3-.9-.6-1.1c-.1-.1.1-.5 0-.7zm50.9 19.2c0-.2-.3-.2-.4-.4-.2-.2-.3-.3-.5-.4-.5-.4-2.2-.7-2.7-1.1-.1-.1-1.3-.1-1.3-.3 0-.3-.2-.2-.3-.2-.2.1-.3-.1-.4-.1-.8-.3-2.6-.8-2.8-1-.2-.2-.2-.5-.2-.6.3-.5.8-1.3 1-1.6.4-.6 1.1-1.6 1.6-1.9.3-.2.9-.5 1.2-.7.3-.2.5-.9.2-1-.4-.2-1.2 0-1.6.4-.6.6-1.5 1.5-1.9 1.6-.4.2-1.9.9-2.1.9h-2.7c-.3 0-.8.1-1.1.2-.5.1-.8-.1-1-.1-.3-.1-1.1-.1-1.3 0-.2 0-.3.4-.5.4s-.3-.1-.3-.4c0-.4.1-1.1.2-1.4.1-.5.5-1.7.6-2.1 0-.4 0-.9.1-1.1.1-.1.4-.3.4-.5.1-.4.3-1 .5-1.1.2-.2.4.1.7 0 .1-.1.2-.4.3-.4.2-.1.4-.3.6-.2.2.1.1.5 0 .6-.6.7-1.2 2.1-1.5 2.5-.5.7-.4.5-.7 1.1-.2.4 0 1.7-.1 2.1-.1.2.2.3.3.1.7-.6 2.7-1.6 3.2-1.8.4-.2 1.1-.4 1.3-.6.2-.3.3-.6.2-.9-.4-1-1-1.3-1.1-1.5-.1-.1-.2-.5 0-.6.1-.1.8-1.5 1-2 .2-.4.6-1.2.6-1.4.2-.5-.1-.6.1-1.1.2-.3.5-2.1.7-2.8.2-.7.6-2.1.7-2.3.3-.7.5-1.1.6-1.4.1-.5.1-.9 0-1.2-.1-.3-.3-.4-.6-.3-.3.1-.8.7-1.4 1.2-.6.5-1.8 1.1-3 2.2-1.2 1.2-.7.9-1 1-.1.1-.4-.2-.5-.3-.4-.2-.4 0-.5.1-.1.2 0 .3-.1.5-.3.4-1.7 3.2-2.1 5-.4 1.6-.9 5-1.1 6-.5 2.3-.3 4.6-.8 5.1-.6.7-2.1 2.3-3.2 3.3s-3.3 2.1-3.5 2c-.2-.1-.1-.2-.1-.4.1-.2.4-.3.6-.4.2-.1.4.1.6-.1.2-.1 0-.9.2-1.1.4-.4 2.5-2.2 3.1-2.9.5-.7 1.6-1.6 1.4-1.9-.3-.5-.8-.9-1-.9-.3 0-.8.1-1.1 0-.4 0-1.1.3-1.2.1-.1-.4.9-.9 1-1 .1-.2.1-.4.2-.7.1-.3-.2-1-.3-1.2-.1-.2-.1-.9-.3-.8-.3.1 0 .6-.2.7-.2.1-.7.5-.9.6-.1.1-.2.3-.3.3-.2 0-.5 0-.4-.2.1-.4-.1-1.3.1-1.5.2-.2.3-.3.5-.6.1-.2.3-.3.5-.5.3-.3 1-.4 1-.6 0-.3 0-.8-.1-.9-.2-.1-.4-.3-.5-.5-.2-.2-.4-.7-.5-.9 0 0 0-.2-.5-.2-.4 0-1 .5-1.6.9-.6.4-1.2.8-1.2 1.2 0 .3.6 1 .7 1.3.1.2.3.4 0 .7-.3.3-1.4 1.7-1.8 2.4-.1.2-.1.4-.1.7 0 .4.4 1.6.6 2.1.1.2.3.2.4.1.2-.1.4.2.2.4-.3.3-.8.7-1.2 1-.2.2-1.2 1.2-1.5 1.4-.2.2-1 .6-1.3.8-.2.1-.4.4-.2.6.1.2.4.9.7 1 .3.1.6 0 .8-.2l1.4-1.4s.2.1.4 0c0 0 0-.3.2-.5.2-.4 1-1.2 1.4-1.4.2-.1.3.2.4.3.1.1-.1.3-.1.4 0 .2.1.2.1.5 0 .2-.1.3-.2.4-.3.4-1.2.4-1.7.5 0 0 .4.3 1.1.3.2 0 .4.3.3.4-.4.5-1.2 1.4-1.7 1.7-.3.2-.5.7-.4 1.2.1.5.2 1.3.6 1.2.5-.2 1.4-.5 1.7-.6.3-.1.8-.5 1-.5.5-.1 1.3-.3 1.8-.7.5-.4 1.1-.8 1.4-1 .4-.4.4-.5.7-.8.7-.5 1-1 1.3-1.3.1-.2.3-.4.6-.2.2.1-.1 1.2 0 1.5.1.5.1 1.4.3 1.7.3.6 1.1 1.2 1.7 1.3.6.1 1.3.3 1.7.2.4-.2 1-.6 1.5-.9.3-.2.7-.7 1-.9.3-.3.8-.4 1-.7.2-.2.9-.9 1.1-1.2.2-.2.3-.4.4-.5.3-.3.2-.3.6-.3.2 0 1.9 1.2 2.7 1.5 1 .3 2 .5 3 .5 1.3 0 4.6-.8 4.6-1zm-11.9-11.3c.1.3.1.6-.1.8-.3.3-1.7.8-2 1-.2.1-.2.2-.3-.2-.1-.5.5-.7.5-.9 0-.4.2-.6.4-.8.3-.2.3.4.6.3.2 0 .3-.3.5-.4.1-.2.3-.3.4.2zm-2.3-5.7c.1-.3.3-.9.3-1.3 0-.7.8-1.7 1.4-2.4.6-.7 3-2.2 3-2.2.1.4-.2 1.7-.6 2.8-.4 1.1-.5 1.5-.8 2.6-.1.5-.4.2-.6.4l-.6.6c-.5.5-1.5 1.1-1.8 1.4-.1.2-.5.1-.5-.2 0-.2 0-.4-.1-.8-.1-.2.2-.7.3-.9zm-10.6 12.8c0-.1.8-.5 1.2-.7.4-.2.8-.4 1.2-.4.2 0 .4.1.3.4-.1.4-1.8 2-2.3 2.6-.1.1-.4-.3-.4-.6v-1.3zm-1.7-2.7c-.1-.2 0-.3.2-.5.2-.1.1-.3.2-.3.2 0 .3.3.1.6-.1.2-.4.3-.5.2zm15.1 5.6c-.1.2-.2.4-.5.6-.7.5-3.1 1.8-3.5 2-.4.3-1.2.2-1.4-.1-.2-.2-.5-.5-.5-1-.1-.7-.1-2-.1-2.6 0-.6.1-1.5.4-2.2.1-.2.7.5 1.1.5.4.1.9.3 1.4.4.7.2 1.4.6 2 1 .4.3.8.3 1.3.8 0 .2 0 .5-.2.6zm1.8-2.7c-.3-.1-.6-.2-.8-.4-.3-.2 0-.7.2-.7.3 0 1.1-.4 1.4-.6.2-.2.4.1.3.3-.1.2-.6.8-.8 1.1 0 .3-.2.4-.3.3zm44.3-9.4c-.4.2-1.4 1.4-1.7 1.5-.3.1-.7-.2-.9-.1-.6.1-2.1.5-3.1.6-.9.2-2.3.7-2.7.9-.3.1-.3.3-.1.5.5.5 1 .7 1.2 1.1.2.2-.1.3-.2.7-.1.4-.4 2.5-.2 3.6.1 1 .6 3.9.8 4.8.1.7.2 1.7.3 2.1.1.5-.1 1.4-.3 1.7-.7.8-1.8 1.9-2.1 2-.5.2-1 .1-1.5-.2-.5-.4-.8-1.3-.9-1.7-.3-.7-1.1-1.3-1.7-1.7-1-.7-3.2-1.8-3.5-2.6 0-.1-.1-.3.1-.4.4-.2.7.4.9.6.6.4 1 .5 1.4.7.6.2 1.8.5 2 .6.6.2 1 .3 1.5.1.3-.1.9-1.2.9-1.6.1-1.1-.2-2.4-.2-2.9.1-1.5 0-1.8.2-3 .1-.8-.1-1.5-.1-1.9 0-.5 0-1.2.2-1.5.1-.3-.2-.3-.5-.2-1.2.3-1.7.9-2.7 1.4-.7.3-2 1.1-2.5 1.3-.4.1-.6.6-.9.4-.2-.2-.6-.2-.8-.5-.3-.6.2-1.1.6-1.3.5-.3 1-.1 2.5-.9 1.6-.8 3.2-1.8 4.5-2.3 1.2-.5 4.6-1.5 5.1-1.6.5-.1 1.6-.2 1.7-.3.7-.3 1.3-.3 1.5-.3.3-.1.7 0 1 .1.4-.1.5.1.2.3zm-66.5 8.8c-.2.3-.6.2-.8.1-.2-.2-.6-.5-.7-.9-.1-.3.1-1.1.2-1.4.1-.3.2-.4.4-.5.1-.1.3 0 .5-.1.1-.1.8-1.1 1.1-1.6.4-.8 1.5-3 1.7-3.5.2-.3.8-1.7 1.2-2.6.3-.5 1.7-4.3 2.3-5.3.2-.2.9-1.7 1.3-2.4.4-.6 2-3.1 2.2-3.2.2 0 .3.2.5.4.2.1.3.3.5.3.3 0 .3.4.4.5.1.1.3.5.4.6.2.2.2.3.4.5.2.1.2.6 0 .9-.2.2-.4.5-.8.6-.3.1-1.1.1-1.5.4-.3.2-1 .7-1.3 1.1-.7.7-1.4 2-2 3-.4.7-2 3.4-2.4 4.4-.2.4-1.2 2.5-1.5 3.3-.5 1-1.6 3.2-1.8 3.7-.3.7-.1 1.4-.3 1.7z" fill="#252021"/></svg>