<svg viewBox="0 0 200 60" id="caterpillar" xmlns="http://www.w3.org/2000/svg"><path d="M81.7 27.1h1.8c1.8 0 2.4-1 2.4-3.5s-.5-3.7-2.1-3.7h-2.1v26.6h-6.9V14.4h10.3c5.8 0 7.6 3.1 7.6 8 0 3.5-.9 6.3-4.2 7.1 2.8.5 4.1 2.7 4.1 6.3v7.8c0 1.4.4 2.5.6 2.8h-7c-.2-.3-.5-1.3-.5-2.7v-8.5c0-1.5-.8-2.7-2.4-2.7h-1.7l.1-5.4M15.4 40.9c1.2-1 1.4-2.3 1.4-3.4v-4.8h-6.7v6.5c0 .9-.8 1.7-1.7 1.7s-1.6-.8-1.6-1.7V20.7c0-.9.7-1.7 1.6-1.7s1.7.8 1.7 1.7v6.5h6.7v-6.8c0-3.8-2.5-6.8-8.4-6.8-6.1 0-8.5 3.1-8.5 6.9v19.2c0 3.7 3 6.5 6.7 6.5h2.1l6.7-5.3zm173-13.9v-7.2h2.1c1.6 0 2.1 1.2 2.1 3.7s-.6 3.5-2.4 3.5h-1.8v5.4h1.7c1.7 0 2.4 1.1 2.4 2.7v8.5c0 1.4.3 2.5.5 2.7h7c-.2-.3-.6-1.4-.6-2.8v-7.8c0-3.7-1.3-5.8-4.1-6.3 3.3-.9 4.2-3.6 4.2-7.1 0-5-1.8-8-7.6-8h-10.3v32.1h6.9v-14l-.1-5.4zm-16.9 13.7l-.7-5.9-1.8-15-1.8 15h3.6l.7 5.9h-5l-.7 5.7h-7l5.5-32.1h9.3l5.5 32.1h-7l-.6-5.7zm-44.1 5.6v-32h7.1v26h7.4v6.1h-14.5zm-10.8 0h7.1v-32h-7.1v32z" fill="#030202"/><path d="M127.4 46.3v-32h7.1v26h7.4v6.1h-14.5zm16.1 0v-32h7.1v26h7.4v6.1h-14.5zm-29.3-22.4c0 5.6-1.1 9.7-7.4 9.7H103v-5.7h2.1c1.8 0 2.1-1 2.1-4 0-2.9-.3-4.2-2.1-4.2H103v26.5h-6.9V14.1h10.8c6.3.2 7.3 4.2 7.3 9.8m-51.3-3.5v6.4h7.3V33h-7.3v7.1h8.7v6.2H55.8v-32h15.5v6.1h-8.4zM41.8 41.7V20.5h-4.6v-6.2h16.7v6.2h-4.6v25.7h-2l-5.5-4.5z" fill="#030202"/><path d="M44.8 46.3L28.5 32.6 11.7 46.3h33.1z" fill="#f6b631"/><path d="M26.7 29l1.8-9.2 1.8 9.2h-3.6l1.8 1.6 10.6 8.8-5.9-25.1h-9.3l-5.4 24.4 10.1-8.2-1.9-1.5z" fill="#030202"/></svg>