<svg viewBox="0 0 200 60" id="china-railway" xmlns="http://www.w3.org/2000/svg"><path d="M16.9 38.1c6-3.5 6.7-10.5 2.9-14.9-3.7-4.3-9.8-4.8-14.1-.6C2 26.2 1.3 34.1 8.1 38.1c-.5.6-.9 1.3-1.4 1.9-.3.4-.6.2-.9 0-2.2-1.4-3.8-3.3-4.7-5.7-.5-1.4-1-3-1.1-4.5-.1-2.3.6-4.5 1.7-6.5 1.7-3 4.2-5 7.6-5.9.3-.1.6-.4.8-.7.3-.7.6-.9 1.4-.9h2.3c.6 0 1 .3 1.2.8.1.5.4.7.9.8 4.8 1.4 7.7 4.7 8.9 9.6 1.3 4.9-1.8 10.8-5.3 12.9-.8.5-.8.5-1.4-.3l-1.2-1.5zm134.7-7.8h1.8c.3 0 .6-.1.8-.2.2-.2.3-.6.2-.8 0-.2-.4-.4-.6-.4h-5.1c-.5 0-.7.3-.7.8v1.5c0 .6-.4.6-.8.6s-.8 0-.7-.6v-4.7c0-.2-.1-.4-.1-.6-.2.1-.5.1-.7.2-.4.3-.8.7-1.2 1.1-.6-1.1-.5-1.5.2-2.4.8-.9 1.6-1.9 2.4-2.9.3-.4.2-.7-.3-.7h-2.1c-.6 0-.5-.3-.5-.7 0-.4 0-.7.5-.7h2.4c.8.1 1.3-.2 1.5-1 0-.2.1-.3.2-.5.6.1 1.1.2 1.7.2v.2c-.2 1.1-.2 1.1.9 1.1h5.4c.6 0 .7.2.7.8 0 .5-.2.7-.7.7h-6.7c-.3 0-.6.1-.8.2-.2.2-.3.6-.4.9.3.1.6.2.9.2h5.7c.6 0 .7.2.7.7v6.9c0 .9-.5 1.4-1.4 1.4h-1.6c-1.6.1-1.3.2-1.6-1.3zm-.4-6.5h-2.6c-.5 0-.7.2-.7.7s.2.7.7.7h5.1c.5 0 .7-.2.7-.7s-.2-.7-.7-.7h-2.5zm-.1 4h2.6c.5 0 .7-.2.7-.7s-.2-.7-.7-.7h-5.1c-.5 0-.7.3-.7.8s.3.7.7.7c.9-.1 1.7-.1 2.5-.1z" fill="#FF2600"/><path d="M20.5 44.3H4.7c-.2-.8.1-1.2.9-1.4 1.3-.2 2.7-.4 4-.8 1.6-.5 2.2-1.4 2.2-3s-.1-3.1 0-4.7c.1-2-.9-3-2.7-3.5-.5-.1-.7-.3-.6-.8v-1.6c0-.8.4-1.3 1.3-1.4h5.5c.8 0 1.2.4 1.3 1.3.1.6.1 1.3 0 1.9 0 .2-.3.4-.5.5-.6.4-1.4.6-1.9 1-.6.5-.9 1.2-.9 2v5.5c0 1.2.5 2 1.5 2.5.9.4 1.9.6 2.9.8.7.2 1.3.2 2 .3.6.2.8.6.8 1.4zM41 24.5v3.2c0 .3 0 .7-.4.6s-1.1.4-1.2-.4c-.1-.5-.4-.6-.8-.6h-2.2c-.5 0-.8.2-.8.8v3c0 .7-.4.7-.9.7s-.9 0-.8-.7v-3c0-.5-.2-.8-.8-.8h-2.2c-.4 0-.6.1-.7.6-.2.8-.8.3-1.2.4-.4.1-.5-.2-.5-.6v-6.4c0-.5.2-.6.6-.6H33c.6 0 .9-.2.8-.8v-.7c0-.8 0-.8.9-.9.7 0 .8.2.8.9 0 1.6 0 1.6 1.6 1.6h3.2c.4 0 .6.2.6.6.1 1 .1 2.1.1 3.1zm-3.5 1.3h1.1c.6 0 .8-.2.8-.8v-2c0-.4-.2-.6-.6-.6h-1.5c-1.7 0-1.6-.1-1.6 1.6 0 2-.3 1.8 1.8 1.8zm-5.4 0h.2c1.8 0 1.6.2 1.6-1.6s0-1.8-2-1.8c-1.8 0-1.7-.1-1.7 1.6.1 2-.1 1.8 1.9 1.8zm81.4.3c-1.1-.4-2.1-.8-3.1-1.1-.3-.1-.7 0-1 .1l-2.7.9c-.4.1-.6-.3-.8-1.1.7-.2 1.4-.4 2.1-.7.6-.2.6-.5.2-.9-.1-.1-.3-.2-.4-.4-.3-.5-.7-.7-1.1-.2-.7-.6-.8-.7-.9-.2v.9c-.1.1-.2.1-.2.1-1.1.1-1.4.6-1.1 1.7.1.2.4.4.6.4.4.1.5.3.5.6 0 .4-.1.6-.5.5-.5 0-.6.3-.6.7 0 .5-.1 1.2.1 1.5s.9.2 1.4.2c.3 1.2.1 1.4-1.1 1.5s-2.4.3-3.5.5c-.4.1-.6 0-.7-.4-.1-.5-.3-1 .2-1.4.1-.1.1-.4.1-.6v-3.3c0-.3 0-.6.4-.6.5 0 .5.3.5.6v3.3c0 .4 0 .8.5.7.4 0 .7-.3.7-.7v-4.6c0-.6-.4-.7-.8-.7-1.2 0-1-.2-1-1.1v-2.7c0-.5.2-.6.6-.6h3.3c.4 0 .6.1.6.6v1.1c0 .2.1.3.2.5.1-.1.3-.1.4-.3.5-.7 1.1-1.4 1.5-2.2.3-.5.6-.7 1.1-.5.2.1.5.1.8.2-.1.1-.1.2-.2.3-.3.6-.2.9.5.9h2.7c.6 0 .7.2.7.7 0 1.1-.7 1.8-1.3 2.6l-.6.9c.3.2.6.3.9.5h.1c1.5.3 1.6.4.9 1.8zm-1.6-4.7c-.3-.2-.5-.4-.7-.4h-2.4c-.4 0-.6.3-.3.6.4.5.8.9 1.3 1.4.1.1.3.1.3.1.6-.5 1.1-1.1 1.8-1.7zm-7.5.1c0-.9-.1-1-.9-1s-.9.1-.9 1 .1.9 1 .9c.7 0 .8 0 .8-.9zm-46.8 3.8v-5.7c0-.5.2-.7.7-.7h11.1c.6 0 .8.2.8.8v11.1c0 .3-.1.8-.2.8-.4.1-.9 0-1.4 0-.3 0-.7-.3-1-.3h-7.4c-.3 0-.6.2-.9.3-.5.1-1 .1-1.4.1-.1 0-.2-.4-.2-.6-.1-2-.1-3.9-.1-5.8zm1.7-.2v4.2c0 .5.2.7.7.7h7.8c.6 0 .8-.2.8-.8V21c0-.6-.3-.8-.9-.8h-7.6c-.6 0-.8.3-.8.8v4.1zm-16 .2v-5.6c0-.6.2-.8.8-.8h11c.6 0 .8.2.8.8v11.1c0 .9-.7 1.3-1.6.9-.3-.2-.7-.3-1.1-.3h-7.4c-.3 0-.6.2-.9.2-.5.1-1 .1-1.4.1-.1 0-.2-.4-.2-.7-.1-1.9 0-3.8 0-5.7zm1.6-.3v4.2c0 .6.2.8.8.8h7.6c.6 0 .9-.3.9-.9v-8c0-.6-.2-.9-.9-.9h-7.6c-.6 0-.8.2-.8.8.1 1.3 0 2.7 0 4zm97.6.4v5.4c0 .3 0 .8-.1.8-.4.1-.8.1-1.3 0-.4-.1-.9-.3-1.3-.3h-7.1c-.4 0-.8.1-1.1.3-.8.4-1.5.1-1.5-.8v-11c0-.6.2-.9.8-.9h10.9c.6 0 .8.2.8.8-.1 1.9-.1 3.8-.1 5.7zm-1.5-.3v-4.2c0-.5-.2-.8-.8-.8h-7.9c-.6 0-.8.3-.8.8v8.2c0 .6.3.8.8.8h7.9c.6 0 .8-.2.8-.8v-4zm-69.3 5.1c1.7-.8 3.4-1.5 5-2.2.4-.2.8-.5 1.2-.8.2-.2.1-.5.2-.8-.3 0-.6-.1-.8 0-1.3.6-2.7 1.2-4 1.9-.9.4-.9-.3-1.3-.8 1-.3 1.9-.6 2.8-1 .7-.3 1.4-.6 2-.9.2-.1.4-.5.3-.6-.1-.3-.4-.4-.8-.3-.9.4-1.8.7-2.8 1-.9.3-.9.3-1.4-.7l3.9-1.2c.2-.1.3-.2.5-.3-.2-.1-.3-.3-.5-.3h-1.4v-1.1h7c.3 0 .7-.1.7.5 0 .4-.1.6-.5.6h-2.4c-.9.2-1.1.7-.6 1.5.7 1 .7 1 1.8.4.7-.4 1.4-.7 2.1-1.1.5-.3.8-.3 1.1.2.1.2.3.4.4.6-.5.2-.9.4-1.3.6-.8.4-1 .7-.5 1.4.6.8 1.3 1.6 2 2.4.1.2.3.3.6.5-.4.3-.7.7-1.1.9-.1.1-.5 0-.6-.2-.7-1-1.4-2.1-2-3.1-.1-.1-.1-.4-.2-.5-.2-.1-.5-.3-.7-.3-.1 0-.3.4-.3.6 0 1 .1 1.9.1 2.9 0 .9-.6 1.5-1.5 1.5-.6 0-1.3.1-1.9.1s-.7-.4-.8-.9c0-.6.4-.4.7-.4 1.2 0 1.8-.3 2-1.2 0-.3-.1-.6-.2-.9-.2.1-.5.1-.7.2-1.5 1-3 1.8-4.7 2.5-.6.2-.9.1-1.1-.4-.1 0-.2-.1-.3-.3zm100.2-2.8c-.5.3-.9.6-1.4.9-.6.4-.6.6 0 1 .5.3 1 .5 1.5.8v.1c-.8 1.5-.8 1.5-2.2.5-.4-.3-.8-.7-1.2-1-.3-.3-.7-.3-.7.1 0 1.5-1.3 1.3-2.1 1.6-.1.1-.3.1-.5.1-.3 0-.8.2-1 0-.3-.3-.6-.7-.3-1.3.2-.4.2-.9.2-1.3v-9.1c0-.6.2-.8.8-.8h5.5c.5 0 .8.2.7.7v5.4c0 .5-.2.7-.7.6-.6-.1-1.2 0-1.8 0-.5 0-.7.2-.5.7.1.1.1.3.2.4.4.8.6 1.2 1.4.4.1-.1.3-.2.4-.3 1-.7 1.2-.6 1.7.5zm-4.1-5.6h1.5c.5 0 .7-.4.7-.8 0-.5-.1-.8-.7-.8h-3c-.6 0-.7.4-.7.9s.2.8.7.8c.5-.1 1-.1 1.5-.1zm-2.2 6v1.4c0 .4.2.6.6.5.5-.1 1-.2 1.4-.3.1 0 .3-.4.3-.5-.4-.9-.7-1.9-1.2-2.8-.1-.2-.4-.4-.6-.3-.2 0-.4.3-.5.5v1.5zm2.3-4.8h-1.5c-.5 0-.7.3-.7.7 0 .4.1.8.6.8h3.1c.5 0 .6-.4.6-.8s-.2-.7-.6-.7h-1.5zm-52.4.1l-.1-.1c-.5-.8-.6-1.5.4-2.2.5-.4.9-1 1.3-1.6.6-.8.9-.9 1.9-.5-.1.9-.1.9.8.9h.7c1.1 0 1.1 0 .7-1 .4-.1.7-.2 1.1-.2.1 0 .4.2.4.4.2.8.7 1 1.5.9 1-.1 2 0 3 0 .2 0 .5.2.5.4.1.4-.2.5-.5.5h-3.4c-.4 0-.8.1-.8.6s.4.5.8.5h2.8c.2 0 .4.2.6.4-.2.1-.4.4-.6.4h-2.8c-.4 0-.8.1-.8.6s.4.5.8.5h2.8c.3 0 .7 0 .7.4 0 .5-.3.4-.6.4h-2.8c-.3 0-.7 0-.7.5s.3.5.7.5h3.3c.3 0 .8-.2.8.4 0 .5-.5.4-.8.4h-8c-.4 0-.8.3-1.1.4-.4.1-.8.1-1.2 0-.1 0-.2-.5-.2-.8v-2.1c-.3-.8-.3-.9-1.2-.6zm4.2-1.5c.4 0 .9.1 1.3 0 .2 0 .4-.3.6-.5-.2-.2-.4-.6-.6-.6-.8-.1-1.7-.1-2.6 0-.2 0-.5.3-.5.5s.3.5.5.5c.4.1.9.1 1.3.1zm0 1.9c.4 0 .9.1 1.3 0 .2 0 .4-.3.6-.5-.2-.2-.4-.6-.6-.6-.8-.1-1.7-.1-2.6 0-.2 0-.5.3-.5.5-.1.4.2.6.6.6h1.2zm.1.9h-1.4c-.2 0-.4.3-.4.5s.2.5.4.5h2.8c.2 0 .4-.3.4-.5 0-.1-.3-.4-.5-.4-.5-.2-.9-.1-1.3-.1zm-28.7 6.5c.6-.7 1.3-1.3 1.8-2 .5-.6.9-1.3 1.2-1.9.3-.6.1-.9-.6-.9h-.8c-1.2 0-1.2 0-1.1-1.3h2.2c.7 0 1-.2.9-.9v-.6c0-.4.1-.8-.4-.9s-1.1-.2-1.4.5c0 .1-.1.2-.1.2-.3.9-.3.9-1.2.5-.3-.2-.4-.4-.3-.7.4-1.2.8-2.4 1.3-3.6h.6c.6 0 .8.2.5.8-.1.2-.1.5 0 .6.1.2.4.3.6.2.2 0 .4-.3.4-.5.1-.6.1-1.2.2-1.9h.8c.4 0 .6.1.6.6v.3c0 1.6 0 1.6 1.7 1.6h.7c.5 0 .6.1.6.6s-.2.6-.7.6H97c-.6 0-.9.2-.9.9 0 1.6-.1 1.6 1.5 1.6h1c.5 0 .9 0 .9.7s-.4.7-.9.7h-1.5c-.7 0-.8.2-.5.8.6 1.2 1.4 2.2 2.4 3 .5.4.5.6.1 1-.2.3-.4.5-.6.9-1.2-.9-2-2-2.6-3.3-.1-.2-.3-.4-.4-.6-.2.2-.4.4-.5.6-.7 1.4-1.6 2.5-2.9 3.5-.3-.5-.7-.8-1-1.1zm89.7-4.3c.4-.3.7-.5 1-.7.1-.1.4 0 .5.1 1.1 1.5 2.2 2.9 3.3 4.4.1.1 0 .4-.1.5-.2.2-.5.4-.8.5-.2.1-.6 0-.6-.1-.4-.7-1-.7-1.7-.6-.4 0-.7.1-1.1.1-2.1.1-4.1.2-6.2.3-.2 0-.5-.1-.5-.2-.2-.3-.3-.6-.4-1 0-.1 0-.4.1-.5 1.7-1.6 2.8-3.6 4-5.5.6-.9.6-.9 1.6-.5.2.1.4.2.7.4l-2.1 3c-.4.6-.9 1.1-1.3 1.7-.1.2-.2.4-.2.6 0 .1.3.2.5.2l4.5-.3c.4 0 .5-.2.2-.6-.5-.5-.9-1.1-1.4-1.8zm13.2-7.7h5.1c.9 0 .9 0 .9.9v9.7c.1 1.5-1 2-2 2.1-.6.1-1.2.1-1.8 0-.2 0-.4-.2-.5-.4-.4-1-.4-1 .8-1 1.6 0 2.1-.5 2.1-2.1v-6.9c0-.9-.1-1.1-1.1-1.1h-8.6c-.5 0-.7-.1-.7-.7 0-.5.2-.7.7-.7 1.6.2 3.4.2 5.1.2zm-35 6.6v-5.7c0-.7.2-.8.8-.8h2.8c.5 0 .7.2.6.6-.2 1-.4 1.9-.7 2.9l-.3.9c0 .3 0 .7.2 1 .8 1.1 1.1 2.2 1 3.6-.1 1-1 1.7-2 1.6-.1 0-.3-.1-.3-.2-.1-.3-.1-.7-.2-1-.1-.5.3-.4.6-.6.6-.4.6-1 .4-1.5-.2-.5-.4-1.1-.7-1.5s-.4-.8-.2-1.3c.2-.8.5-1.5.7-2.3.1-.3 0-.7-.1-.8-.3-.1-.7-.2-1-.1-.2 0-.3.4-.3.7v10.1c0 .9-.1 1-1 .9-.5 0-.4-.4-.4-.7.1-2 .1-3.9.1-5.8zm-53.6 12c-.1.2-.3.5-.4.7-.4 1.6-.8 3.3-1.3 4.9 0 .2-.4.4-.6.4-.4 0-1 .3-1.1-.4-.2-.9-.5-1.7-.7-2.6-.4-1.4-.7-2.8-1.1-4.2 0-.2 0-.3-.1-.6h1c.2 0 .4.2.4.3.3 1.4.6 2.8.9 4.1.1.6.3 1.2.4 1.9h.2c.1-.5.3-1.1.4-1.6.4-1.5.7-3 1.2-4.5.1-.2.7-.3 1-.3.2 0 .5.3.6.5l1.2 5.4c0 .1.1.3.3.5.2-.4.4-.7.5-1 .3-1.5.7-3 .9-4.6.2-1 .3-1 1.4-.7-.2.7-.3 1.4-.5 2.1-.4 1.7-.9 3.4-1.3 5.1-.2.8-.8.5-1.2.5-.5.1-.5-.3-.6-.6-.3-1.3-.6-2.5-.9-3.8l-.3-1.5h-.3zm9.6-6.9c.8-.3 1.5-.5 2.2-.8.5-.2.9-.4 1.4-.6.1-.1.3-.2.4-.4-.2-.1-.3-.2-.5-.2h-2.6c-.2 0-.5 0-.6-.2-.3-.3 0-.7.5-.7h4.2c.5 0 .9 0 1.2-.5.2-.3 1.1-.2 1.4.1.2.2.5.4.8.4h4.3c.6 0 .8.2.7.9h-3.1c-.2 0-.5.2-.7.3.2.1.3.3.5.4 1.1.4 2.2.8 3.4 1.2-.1.2-.3.4-.3.6-.2.5-.6.6-1 .4l-3.6-1.8c-.2-.1-.5-.2-.7-.3-.1.3-.1.5-.2.8v1.3c0 .5-.2.6-.6.6s-.8.1-.8-.5V30c0-.2-.1-.4-.2-.5s-.4.1-.5.2c-1.3.7-2.5 1.3-3.8 2.1-.6.4-1 .2-1.2-.5-.4-.4-.5-.5-.6-.7zm-24.2-3.7h-.9c-.4 0-.7.2-.7.6v.2c.1.3.1.7.2 1 .3-.1.7-.2 1-.4.1 0 .2-.1.3-.1.4 1 .3 1.2-.5 1.8-.7.5-1.3 1-2 1.5-.4-.5-.8-.8-.6-1.6.2-.8.1-1.7.1-2.6 0-.6-.5-.4-.9-.4-.3 0-.7.1-.7-.4s0-.8.6-.8c.9 0 1.4-.9.9-1.6-.1-.2-.5-.2-.7-.2-.1 0-.2.3-.3.4-1-1.4 0-2.5.4-3.7.2-.5.4-1.1.5-1.7s.5-.7 1-.6.5.5.3.8c-.3.7.1.8.6.8h.8c.5 0 .6.2.6.6 0 .5-.3.5-.6.5h-1.6c-.2 0-.5.2-.7.3-.2.2-.2.6-.3.9.3.1.5.2.8.2h1.4c.4 0 .6.1.6.5s-.1.6-.5.6c-.8 0-.8.2-.8 1.1 0 .6.2.9.8.9 1 .3 1 .3.9 1.4z" fill="#FF2600"/><path d="M192.3 24.7h3c.5 0 .7.2.7.7v3.4c0 .5-.2.7-.7.7h-4.1c-.4 0-.8 0-.9.6-.2.6-.7.3-1.1.3-.1 0-.4-.3-.4-.5v-4.5c0-.5.2-.6.7-.6.8-.1 1.8-.1 2.8-.1zm-.1 3.4h1.4c.5 0 .7-.2.7-.7 0-.2.1-.5 0-.7s-.4-.6-.6-.6c-1-.1-1.9 0-2.9 0-.4 0-.7.2-.6.7 0 .2-.1.5 0 .7s.3.5.6.6h1.4zM51 37.8v5.1c0 .4-.1.6-.6.6s-.6-.2-.6-.7v-6.4c0-.3.2-.7.3-.8.5 0 1-.3 1.4.3.6 1 1.2 1.9 1.8 2.9.4.7.8 1.4 1.3 2 .1.2.3.2.5.3.1-.2.2-.4.2-.6v-4.9c1-.2 1.1-.2 1.1.8v6.2c0 .3-.2.7-.3.7-.4.1-.9.2-1.3-.3l-3-4.8c-.2-.3-.4-.5-.6-.7-.1.2-.1.2-.2.3zm-14.1 5.7v-7.3c0-.5.3-.6.7-.6s.6.1.6.6v2.1c0 .5.2.8.7.7h2.4c.5 0 .7-.2.7-.7v-2.2c0-.5.3-.5.6-.5.4 0 .7 0 .7.5v6.8c0 .5-.3.6-.6.5-.4 0-.7 0-.7-.5v-2.1c0-.5-.2-.8-.7-.8h-2.2c-.6 0-.8.2-.8.8v1.5c-.1 1.3-.1 1.4-1.4 1.2zm37.8-.1v-7.7c1.4 0 2.7-.2 4 .3.7.3 1 .9 1.1 1.6.1.8-.2 1.5-.9 1.9-.8.5-.7.5-.1 1.3.7.8 1.2 1.7 1.8 2.6-1 .4-1.4.2-1.8-.6-.3-.5-.6-1.1-1-1.6-.2-.2-.4-.5-.6-.6-.7-.4-1.2-.1-1.2.7v1.4c-.1.9-.2 1-1.3.7zm2.3-6.6c-1 0-1 0-1 1v.5c0 1 0 1 1 1 .9 0 1.5-.6 1.5-1.3 0-.8-.5-1.2-1.5-1.2zm34.9-4.8c0-.7-.4-.9-.9-.8h-1.6c-.5 0-1-.1-1.2.6 0 .1-.7.2-1 .2-.1 0-.3-.3-.3-.5v-4.3c0-.4.2-.6.6-.6h5c.4 0 .6.2.6.6v4.2c0 .9-.7.4-1.2.6zm-1.8-2.3h1.1c.6 0 .8-.3.7-.8 0-.5.1-1.1-.7-1.1h-2.3c-.2 0-.4.2-.5.3-.4.9 0 1.6 1 1.6h.7zM77.2 18.5c.5 0 1.1-.1 1.6-.1.2 0 .4.3.5.5.1.6.4.7.9.7H84c.5 0 .8.1.8.7v1.8c0 .6-.3.6-.7.5-.4 0-.8.1-.9-.6-.1-1.4-.1-1.4-1.4-1.4h-7.2c-1.1 0-1.2 0-1.1 1.1 0 .6-.2.8-.8.8-.5 0-.7-.2-.7-.7V20c0-.4.1-.6.6-.6h3.9c.8.2.9.1.7-.9zM65.8 43.4c-1.3.2-1.4.2-1.7-.9-.2-.5-.4-.8-1-.7h-1.7c-.6 0-.9.2-1.1.8-.3 1.1-.4 1.1-1.6.9.2-.7.4-1.3.7-1.9.6-1.8 1.3-3.5 1.8-5.3.2-.7.8-.5 1.2-.6.5 0 .7.2.8.6.9 2.4 1.7 4.7 2.6 7.1zm-3.6-2.6c.2 0 .5.1.7 0s.4-.4.4-.5c-.3-1-.6-2.1-.9-3.1 0-.1-.2-.2-.3-.3-.1.1-.2.2-.2.3-.3.9-.5 1.8-.8 2.8-.1.5 0 .7.5.8h.6zm26.7 2.6c-1.2.3-1.4.2-1.7-.8-.1-.5-.4-.8-1-.8h-1.7c-.6 0-.9.2-1.1.8-.3 1-.4 1.1-1.6.9.2-.7.5-1.4.7-2.1.6-1.7 1.3-3.4 1.8-5.1.2-.7.7-.5 1.2-.6.4 0 .7.1.9.6.8 2.3 1.6 4.7 2.5 7.1zm-3.6-6.5c-.1 0-.2 0-.2.1-.3 1.1-.7 2.2-1 3.3 0 .1.3.5.4.5.5.1.9.1 1.4 0 .2 0 .5-.4.4-.5-.3-1-.6-2.1-.9-3.1.1-.1 0-.2-.1-.3zm33.7 6.5c-1.2.3-1.4.2-1.7-.8-.2-.5-.4-.8-1-.8h-1.8c-.5 0-.8.2-1 .7-.3 1.1-.5 1.2-1.7.9.2-.7.4-1.3.7-1.9.6-1.8 1.3-3.5 1.9-5.3.2-.7.7-.5 1.2-.6.5 0 .7.1.9.6.8 2.4 1.7 4.8 2.5 7.2zm-3.5-6.6c-.2.1-.3.2-.3.2-.3 1.1-.6 2.2-.9 3.2 0 .1.2.5.4.5.5.1 1 .1 1.5 0 .1 0 .4-.4.3-.5-.1-.5-.2-1-.4-1.5-.1-.6-.4-1.2-.6-1.9zm-80.6.1c-1.8-.4-3.1-.2-3.9.8-.7 1-.8 2.6-.1 3.6.7 1.1 1.9 1.3 3.7.8.3.8.3.8-.7 1.1-1.5.5-2.8.2-3.9-1-.4-.5-.8-1.2-.8-1.8-.2-1.4-.1-2.8 1.1-3.8 1.2-1.1 2.7-1.4 4.2-.8.2.3.3.8.4 1.1zm85.2-1.1c1.2-.3 1.4-.2 1.8.8.3.8.6 1.5.9 2.3.1.2.3.5.5.8.4-1 .7-1.8 1.1-2.7.1-.2.1-.4.2-.6.3-.8.5-.9 1.5-.6-.1.2-.1.4-.2.6-.6 1.2-1.1 2.5-1.8 3.7-.5 1-.4 2-.4 3 0 .4-.2.5-.5.5s-.8.2-.7-.4c.4-2.2-.8-3.9-1.6-5.7-.3-.6-.5-1.2-.8-1.7zm-21.3 6.6v1.1h-3.7c-.1 0-.3-.3-.3-.4v-6.9c0-.4.2-.5.5-.5.4 0 .7 0 .7.6v5.1c0 1.1 0 1.1 1.2 1.1.5-.1 1-.1 1.6-.1zm88.8-19.3c-.1-1.3-.1-1.3 1.1-1.3h7.7c.5 0 .8 0 .8.7 0 .6-.3.7-.8.7h-8.2c-.2 0-.4 0-.6-.1zm-6.5-3.7l.1-.1c1.2-.7 1.1-.7 1.9.4 1 1.4 2.1 2.7 3.3 4.3-.2.2-.6.5-1 .8-.2.1-.5 0-.7-.2-1.6-1.5-2.6-3.3-3.6-5.2zm-6.8 5.8c-.1-.1-.2-.1-.2-.1-1.1-1.1-1-1.1 0-2.2.9-1.1 1.7-2.2 2.4-3.4.3-.6.6-.7 1.1-.4.2.1.5.2.8.4-1 2.1-2.5 4-4.1 5.7zM90.7 39.6v-3.4c0-.5.2-.6.7-.6.4 0 .6.1.6.6v6.7c0 .5-.2.6-.7.6s-.6-.2-.6-.6c.1-1.1 0-2.2 0-3.3zm-43.6 3.8c-1 .3-1.2.2-1.2-.8v-5.9c0-1.1 0-1.1 1.2-.9v7.6zm20.4-20.8h-2.3c-.5 0-.8.2-.8.7 0 .6.3.7.8.7h1.6c.2 0 .5.3.5.5s-.1.6-.3.7c-.6.3-.6.4-.1.9l.3.3s.1.1.1.2c-.5.7-.5.7.4 1v1.2c-.2 0-.4.1-.5.1H61c-.5 0-.7-.1-.7-.7 0-.5.2-.7.7-.7h1.5c.5 0 .7-.2.7-.7v-.1c.1-1.4 0-1.4-1.4-1.4h-.6c-.5 0-.6-.2-.6-.6s.2-.6.6-.6h1.4c.5 0 .6-.3.6-.8 0-.4-.2-.7-.6-.7H61c-.5 0-.6-.2-.6-.6s.1-.6.5-.6h6.2c.6 0 .3.7.4 1.2zm-1.9 3.9c.1-.5.2-.7.2-1-.3 0-.6-.1-.9-.1-.2 0-.4.3-.4.4-.1.4-.1.8 0 1.2 0 .2.3.4.5.5.3 0 .7-.1 1-.2-.1-.2-.2-.5-.3-.7l-.1-.1zm-19.8 2.2v-1.2h2c.6 0 .8-.2.8-.8v-.6c0-.5-.2-.8-.8-.8h-1.3c-.4 0-.5-.2-.5-.6 0-.3 0-.6.5-.6h1.3c.5 0 .8-.2.8-.8 0-.5-.3-.7-.8-.7h-1.5c-.5 0-.6-.2-.6-.6s.1-.6.5-.6h6.2c.5 0 .6.2.6.6s-.2.6-.6.6h-1.7c-.5 0-.8.2-.8.7s.3.7.8.7h1.6c.3 0 .6.1.6.5 0 .3 0 .7-.5.7-.5.1-.5.3-.2.7.2.2.4.4.7.6-.5.4-.7.7.1 1 .1 0 .2.6.2.9 0 .1-.3.3-.4.3H46c-.1.1-.1.1-.2 0zm4.2-2.3c0 1 .2 1.2 1.2 1.1.2 0 .4-.1.4-.2.1-.1-.1-.3-.2-.4-.3-.3-.5-.6-.1-1 .2-.2.1-.5-.3-.6-.7-.1-1 .2-1 1.1zm84.9 1.6c.6 0 1.1-.1 1.6-.1.7-.1 1-.5 1-1.2v-1.8c0-.2-.1-.4-.2-.5-.2.1-.4.1-.6.3-1 1-2 2-3 3.1-.5.5-.7.2-1-.2-.3-.4-.3-.6.1-.9 1-.7 2-1.5 2.9-2.3.1-.1.2-.4.3-.5-.2-.1-.4-.2-.6-.2h-2.8v-1.3h4.1c.5 0 .8-.1.8-.7 0-.7.6-.4.9-.4.4 0 .6.1.6.5 0 .2.3.4.4.6.1.2.4.4.4.6 0 .3-.2.7-.4.7-.4.2-.5.4-.5.8-.1 1.2-.1 2.3-.2 3.5-.1.8-.6 1.2-1.3 1.4-.7.1-1.3.1-2 .1-.1 0-.3-.2-.4-.3 0-.7 0-1-.1-1.2z" fill="#FF2600"/></svg>