<svg viewBox="0 0 169 53" fill="none" xmlns="http://www.w3.org/2000/svg">
<path d="M51.5001 32.2C46.9001 26.1 40.0001 19.9 38.1001 18.3C36.8001 17.2 35.4001 16.7 34.1001 16.7C32.8001 16.7 31.5 17.3 30.4 18.2C30.2 18.4 29.9001 18.7 29.5001 19C26.8001 21.3 18.3001 29.1 18.1001 29.3C17.5001 29.9 16.6 30.3 15.7 30.3C14.9 30.3 14.0001 29.9 13.1001 29.1C12.5001 28.5 9.60005 26.2 6.20005 22.4C4.10005 20.1 2.40005 18 2.40005 18C2.40005 18 2.00006 18.8 1.80006 19.3C1.60006 19.8 1.80005 20 1.90005 20.2C3.00005 21.8 8.20006 28 15.3001 34.1C16.6001 35.2 18.0001 35.7 19.3001 35.7C20.6001 35.7 21.9001 35.1 23.0001 34.2C23.2001 34 23.6 33.7 23.9 33.4C26.6 31.1 31.8001 26.4 34.2001 24.1C34.7001 23.6 35.1001 23.3 35.3001 23.1C35.9001 22.5 36.8001 22.1 37.7001 22.1C38.5001 22.1 39.4001 22.5 40.3001 23.3C41.8001 24.6 44.3001 26.9 47.2001 29.9C49.3001 32.2 51.0001 34.3 51.0001 34.3C51.0001 34.3 51.4001 33.5 51.6001 32.9C51.8001 32.6 51.6001 32.3 51.5001 32.2Z" fill="#95C11F"/>
<path d="M24.1 9.80001C21.7 11.5 11.9 20.6 10 22.8C10 22.8 11.4 24.3 13.4 26C13.9 26.5 14.6 26.4 15.1 25.8C18.9 22 26.6 15.2 27.6 14.4C30.5 11.9 33.9 11.7 37 14C44.5 19.6 51.2 28.5 52.3 30.2C52.3 30.2 52.5 29.4 52.6 28.7C52.6 28.7 52.7 28 52.4 27.4C45.3 17.2 37.8 10.9 34.9 9.30001C31.8 7.60001 27.9 7.00001 24.1 9.80001Z" fill="#0085CC"/>
<path d="M16.1 4.4C11.3 8.3 5.00002 14.1 3.40002 15.8C3.40002 15.8 4.60002 17.3 6.40002 19.1C6.80002 19.4 7.10003 19.3 7.50003 19C12.3 14.4 17.5 9.6 20.5 7.3C25.6 3.4 31.5 3 37.4 7.6C39.6 9.3 41.5 11 44.3 13.9C47.9 17.8 50.2 21.1 52.8 24.8C52.8 24.8 52.8 23.8 52.5 22.5C52.5 22.3 52.4 21.9 52.2 21.6C51.7 20.6 49.4 16.7 46.1 12.9C39.6 5.3 35.5 3 32.8 1.6C29.4 -0.199998 22.6 -0.699999 16.1 4.4Z" fill="#0085CC"/>
<path d="M29.2 42.7C31.6 41 41.4 31.9 43.3 29.7C43.3 29.7 41.9 28.2 39.9 26.5C39.4 26 38.7 26.1 38.2 26.7C34.3 30.4 26.6 37.2 25.6 38C22.7 40.5 19.3 40.7 16.2 38.4C8.69998 32.8 1.99997 23.9 0.899973 22.2C0.899973 22.2 0.699985 23 0.599985 23.7C0.599985 23.7 0.499982 24.4 0.799982 25C7.89998 35.2 15.4 41.5 18.3 43.1C21.6 44.9 25.4 45.4 29.2 42.7Z" fill="#0085CC"/>
<path d="M37.1 48C41.9 44.1 48.2 38.3 49.8 36.6C49.8 36.6 48.6 35.1 46.8 33.3C46.4 33 46.1 33.1 45.8 33.4C41 38 35.8 42.8 32.8 45.1C27.7 49 21.8 49.4 15.9 44.8C13.7 43.1 11.8 41.4 9 38.5C5.4 34.6 3.1 31.3 0.5 27.6C0.5 27.6 0.500003 28.5 0.800003 29.9C0.900003 30.1 0.900006 30.5 1.10001 30.8C1.60001 31.8 3.9 35.7 7.2 39.6C13.7 47.2 17.8 49.5 20.5 50.9C23.9 52.6 30.8 53.2 37.1 48Z" fill="#0085CC"/>
<path d="M76.2 3.20001H73.7V7.80001H64.4V20.6H73.7V27.5H76.2V20.6H85.6V7.80001H76.2V3.20001ZM73.8 18.3H66.9V10H73.8V18.3ZM83.2 18.3H76.3V10H83.2V18.3Z" fill="#0085CC"/>
<path d="M105.6 15.7L103.9 17L104.1 17.2C104.8 17.9 105.7 19 106.4 20L106.5 20.2L108.3 18.8L108.2 18.6C107.6 17.8 106.6 16.7 105.8 15.8L105.6 15.7Z" fill="#0085CC"/>
<path d="M109.4 20.5H103.2V15.5H108.4V13.4H103.2V10.2H108.9V8.20001H95.4V10.2H101V13.4H95.9V15.5H101V20.5H95V22.6H109.4V20.5Z" fill="#0085CC"/>
<path d="M91.4 26.8H112.9V4.10001H91.4V26.8ZM110.6 24.7H93.7V6.20001H110.6V24.7Z" fill="#0085CC"/>
<path d="M127.6 17.2C126.6 16.3 123.7 14 123.7 14V12.8H127V10.6H123.7V7.10001C126.1 6.70001 127.1 6.40001 127.1 6.40001L126.6 4.20001C126.6 4.20001 124.5 4.70001 122.3 5.00001C119.5 5.40001 117.9 5.50001 117.9 5.50001L118.1 7.70001C118.1 7.70001 119.9 7.50001 121.4 7.20001V10.5H117.6V12.7H121.1C120.2 15.6 118.7 18.4 117.2 20.6C117.2 20.6 118.8 22.4 118.8 22.3C119.8 20.9 120.7 19.3 121.4 17.6V27.3H123.6V16.8C124.4 17.6 125.2 18.3 125.9 18.9L126.1 19.1L127.7 17.3L127.6 17.2Z" fill="#0085CC"/>
<path d="M135.4 15.5C135.8 15 136 14.4 136 14.4L133.8 14C134.2 13.8 134.6 13.5 135 13.3C137.7 11.6 139.5 9.6 140.7 7.3V7.2V5.2H133C133.2 4.8 133.5 4.4 133.7 4L133.8 3.8L131.7 3L131.6 3.2C130.4 5.6 128.6 7.8 126.4 9.6C126.4 9.6 127.6 10.5 128.2 11C129.5 9.8 130.7 8.6 131.5 7.5H138.1C136.9 9 135.8 10.2 134.5 11.1C133.6 10.3 132.9 9.7 131.8 8.8L131.6 8.7L130.2 10.2L130.4 10.3C131.4 11.1 132 11.6 132.6 12.2C130.9 13.1 129 13.9 126.8 14.5C126.8 14.5 128.2 16.4 128.3 16.4C129.6 16 132.2 14.8 133.3 14.3C131.8 17.2 128.6 19.6 126.3 20.8C126.3 20.8 127.3 21.8 128 22.5C131.6 20.8 134.1 17.6 134.1 17.6H139.1C138.8 19.3 137.3 21.4 135.2 22.7C134.4 21.9 133.5 21.1 132.6 20.2L131 21.6C131.9 22.4 132.6 23.2 133.3 23.9C130.1 25.3 125.9 25.5 125.9 25.5L126.8 27.4C126.8 27.4 139.2 27.1 141.7 17.5V15.4L135.4 15.5Z" fill="#0085CC"/>
<path d="M156 5.5H145.9V7.7H156V5.5Z" fill="#0085CC"/>
<path d="M156.4 22.9C155.7 21.1 154.6 18.6 153.7 16.8L153.6 16.6L151.5 17.5L151.6 17.7C152.1 18.9 152.6 20 153.1 21.3L147.8 22.6C149 20.7 150.4 16.3 151.2 14H156.8V11.8H144.7V14H148.7C148.5 15.3 147.1 19.5 145.2 22.9C145 23.3 144.6 23.6 144.6 23.6L145.3 25.2C145.3 25.2 151.8 23.4 153.7 23.2L153.9 23.8L156.4 22.9Z" fill="#0085CC"/>
<path d="M161.9 8.19999C161.9 6.59999 162 5.09999 162 3.49999V3.29999H159.6V3.49999C159.6 5.09999 159.6 6.69999 159.6 8.19999H156.4V10.5H159.5V13.5C159.5 18.1 158.7 20.5 156.9 23.2C155.8 24.9 153.9 26 153.9 26L155.7 27.8C155.7 27.8 161.9 24.6 161.9 14.5V10.5H166C166 14.6 165.8 18.7 165.6 22.6C165.6 23.8 165 24.4 164 24.4C163.1 24.4 161.3 24.4 161.3 24.4C161.4 25.1 161.7 26.8 161.7 26.8H164.6C166.7 26.8 167.8 25.5 168 23.1C168.2 19.4 168.4 14.5 168.5 8.39999V8.19999C168.4 8.19999 161.9 8.19999 161.9 8.19999Z" fill="#0085CC"/>
<path d="M86.3 37.1C86 36.8 85.6 36.7 85.3 36.6C84.6 36.4 83.8 36.4 83.2 36.6C82.9 36.7 82.6 36.8 82.3 36.9C82 37 81.8 37.2 81.6 37.4C81.5 37.5 81.4 37.6 81.3 37.7V31.8H79.4V46.3H81.3V39.6C81.6 39.1 82 38.8 82.5 38.5C83 38.2 83.4 38.1 83.9 38.1C84.5 38.1 84.9 38.3 85.1 38.6C85.4 38.9 85.5 39.5 85.5 40.2V46.3H87.4V39.9C87.4 39.2 87.3 38.6 87.1 38.2C86.9 37.7 86.6 37.3 86.3 37.1Z" fill="#0085CC"/>
<path d="M91.3 32.8H89.4V34.9H91.3V32.8Z" fill="#0085CC"/>
<path d="M91.3 36.6H89.4V46.2H91.3V36.6Z" fill="#0085CC"/>
<path d="M100.4 37.2C100.1 36.9 99.8 36.7 99.4 36.6C98.7 36.4 97.8 36.4 97.1 36.5C96.8 36.6 96.5 36.7 96.2 36.8C95.9 36.9 95.7 37.1 95.5 37.3C95.4 37.4 95.2 37.5 95.1 37.7L94.9 36.6H93.4V46.2H95.3V39.5C95.6 39 96 38.7 96.5 38.4C97 38.1 97.4 38 97.9 38C98.4 38 98.8 38.2 99.1 38.5C99.4 38.8 99.5 39.4 99.5 40.1V46.2H101.4V39.8C101.4 39.2 101.3 38.6 101.2 38.2C100.9 37.8 100.6 37.5 100.4 37.2Z" fill="#0085CC"/>
<path d="M110.2 38.3C109.9 37.7 109.5 37.3 108.8 36.9C108.2 36.6 107.4 36.4 106.4 36.4C106.1 36.4 105.9 36.4 105.6 36.4C105.3 36.4 105.1 36.5 104.8 36.5C104.6 36.6 104.3 36.6 104.1 36.7C103.9 36.8 103.7 36.8 103.5 36.9H103.4V38.5L103.6 38.4C104 38.3 104.4 38.1 104.8 38C105.2 37.9 105.6 37.9 106.1 37.9C106.7 37.9 107.2 38 107.5 38.2C107.8 38.4 108.1 38.6 108.2 38.9C108.3 39 108.3 39.2 108.3 39.4C108.3 39.6 108.4 39.8 108.4 40V40.4C108.1 40.3 107.8 40.2 107.5 40.2C107.1 40.1 106.6 40.1 106.1 40.1C105.6 40.1 105.1 40.2 104.6 40.3C104.2 40.4 103.8 40.7 103.5 40.9C103.2 41.2 102.9 41.5 102.8 41.9C102.6 42.3 102.5 42.7 102.5 43.2C102.5 43.7 102.6 44.1 102.7 44.5C102.9 44.9 103.1 45.2 103.4 45.5C103.7 45.8 104 46 104.4 46.1C104.8 46.2 105.2 46.3 105.7 46.3C106 46.3 106.4 46.3 106.7 46.2C107 46.1 107.3 46 107.5 45.9C107.8 45.8 108 45.6 108.2 45.5C108.3 45.4 108.4 45.3 108.5 45.3L108.6 46.1H110.2V39.7C110.2 39.4 110.2 39.1 110.1 38.9C110.4 38.8 110.4 38.5 110.2 38.3ZM108.6 42.1V43.7C108.5 43.8 108.4 43.8 108.3 43.9C108.2 44 108 44.1 107.8 44.3C107.6 44.4 107.3 44.5 107.1 44.6C106.6 44.8 106.1 44.8 105.6 44.6C105.4 44.5 105.2 44.4 105.1 44.3C105 44.2 104.9 44 104.8 43.8C104.7 43.6 104.7 43.4 104.7 43.1C104.7 42.6 104.9 42.2 105.2 42C105.5 41.8 106 41.6 106.6 41.6C107 41.6 107.5 41.6 107.8 41.7C108 42 108.4 42.1 108.6 42.1Z" fill="#0085CC"/>
<path d="M75.8 42C74.9 43.6 73.2 44.5 71.4 44.5C68.6 44.5 66.3 42.2 66.3 39.4C66.3 36.6 68.6 34.3 71.4 34.3C73.2 34.3 74.9 35.3 75.8 36.8L75.9 36.9H77.9L77.8 36.6C76.7 34.1 74.2 32.4 71.4 32.4C67.6 32.4 64.5 35.5 64.5 39.3C64.5 43.1 67.6 46.2 71.4 46.2C74.2 46.2 76.7 44.6 77.8 42L77.9 41.7L75.8 42Z" fill="#0085CC"/>
<path d="M123.9 40.3C123.6 40.9 123.3 41.8 122.9 43C122.5 42 122.2 41.1 121.9 40.3L118.8 32.8H116.2V46.2H118.2V39.7C118.2 38.5 118.2 37.1 118.1 35.6C118.5 36.5 118.8 37.4 119.1 38.2L122.4 46.1H123.4L126.7 38.2C127 37.4 127.4 36.5 127.8 35.5C127.7 37 127.7 38.3 127.7 39.6V46.1H129.7V32.8H127.1L123.9 40.3Z" fill="#0085CC"/>
<path d="M150.2 38.3C150 37.9 149.7 37.6 149.4 37.4C149.1 37.2 148.8 37 148.5 36.8C148.2 36.7 147.9 36.5 147.6 36.5C147.3 36.4 147 36.4 146.7 36.4C146.1 36.4 145.6 36.5 145.1 36.7C144.8 36.9 144.4 37.1 144.2 37.3V31.8H142.3V46.3H143.8L144.1 45.4L144.2 45.5C144.3 45.7 144.5 45.8 144.7 46C144.9 46.1 145.2 46.3 145.5 46.4C145.8 46.5 146.2 46.6 146.6 46.6C147.1 46.6 147.7 46.5 148.2 46.3C148.7 46.1 149.2 45.8 149.6 45.3C150 44.9 150.3 44.3 150.6 43.7C150.8 43.1 151 42.3 151 41.4C151 40.8 150.9 40.2 150.8 39.7C150.6 39.1 150.5 38.7 150.2 38.3ZM149 41.4C149 41.9 148.9 42.4 148.8 42.8C148.7 43.2 148.5 43.6 148.3 43.9C148.1 44.2 147.8 44.4 147.5 44.6C147.2 44.8 146.8 44.8 146.4 44.8C146.1 44.8 145.9 44.8 145.6 44.7C145.4 44.6 145.1 44.5 145 44.4C144.8 44.3 144.6 44.2 144.5 44C144.4 43.9 144.3 43.8 144.2 43.7V39C144.5 38.7 144.8 38.5 145.2 38.3C145.8 38 146.6 37.9 147.3 38.2C147.6 38.3 147.8 38.4 148.1 38.7C148.3 38.9 148.6 39.3 148.7 39.7C148.9 40.1 149 40.7 149 41.4Z" fill="#0085CC"/>
<path d="M154.3 36.6H152.4V46.2H154.3V36.6Z" fill="#0085CC"/>
<path d="M154.3 32.8H152.4V34.9H154.3V32.8Z" fill="#0085CC"/>
<path d="M158.3 31.8H156.4V46.3H158.3V31.8Z" fill="#0085CC"/>
<path d="M167.9 39C167.7 38.4 167.4 37.9 167.1 37.5C166.7 37.1 166.3 36.8 165.9 36.6C164.9 36.2 163.7 36.2 162.7 36.7C162.2 36.9 161.7 37.2 161.3 37.7C160.9 38.1 160.6 38.7 160.3 39.3C160.1 39.9 159.9 40.7 159.9 41.6C159.9 42.5 160 43.2 160.3 43.9C160.5 44.5 160.9 45 161.3 45.4C161.7 45.8 162.3 46.1 162.9 46.3C163.5 46.5 164.1 46.6 164.8 46.6C165.4 46.6 165.9 46.6 166.4 46.5C166.9 46.4 167.3 46.3 167.7 46.1L167.8 46V44.4L167.6 44.5C167.2 44.6 166.8 44.8 166.4 44.8C166 44.9 165.6 44.9 165.1 44.9C164.6 44.9 164.2 44.8 163.8 44.7C163.4 44.6 163.1 44.4 162.8 44.2C162.5 44 162.3 43.7 162.1 43.3C162 42.9 161.9 42.5 161.9 42H168.3V41.8C168.3 41.6 168.3 41.5 168.3 41.4V41.2C168.1 40.3 168 39.6 167.9 39ZM161.9 40.3C161.9 40 162 39.8 162.1 39.5C162.2 39.2 162.4 39 162.6 38.7C162.8 38.5 163.1 38.3 163.3 38.2C163.8 38 164.6 38 165.1 38.2C165.4 38.3 165.6 38.5 165.7 38.7C165.9 38.9 166 39.2 166.1 39.5C166.2 39.7 166.2 40 166.2 40.3H161.9Z" fill="#0085CC"/>
<path d="M136 36.4C133.2 36.4 131 38.7 131 41.4C131 44.2 133.3 46.4 136 46.4C138.8 46.4 141 44.1 141 41.4C141.1 38.6 138.9 36.4 136 36.4ZM136 44.8C134.1 44.8 132.6 43.3 132.6 41.4C132.6 39.5 134.1 38 136 38C137.9 38 139.4 39.5 139.4 41.4C139.4 43.3 137.9 44.8 136 44.8Z" fill="#0085CC"/>
</svg>
