<?xml version="1.0" encoding="UTF-8" standalone="no"?>
<svg
   xmlns:dc="http://purl.org/dc/elements/1.1/"
   xmlns:cc="http://creativecommons.org/ns#"
   xmlns:rdf="http://www.w3.org/1999/02/22-rdf-syntax-ns#"
   xmlns:svg="http://www.w3.org/2000/svg"
   xmlns="http://www.w3.org/2000/svg"
   xmlns:sodipodi="http://sodipodi.sourceforge.net/DTD/sodipodi-0.dtd"
   xmlns:inkscape="http://www.inkscape.org/namespaces/inkscape"
   sodipodi:docname="Coolpad 2016.svg"
   inkscape:version="1.0 (4035a4fb49, 2020-05-01)"
   id="svg19"
   version="1.1"
   viewBox="0 0 103.06599 21.632898"
   height="64.50457mm"
   width="307.32025mm">
  <defs
     id="defs13" />
  <sodipodi:namedview
     inkscape:window-maximized="1"
     inkscape:window-y="-8"
     inkscape:window-x="-8"
     inkscape:window-height="705"
     inkscape:window-width="1366"
     scale-x="0.33537"
     fit-margin-bottom="0"
     fit-margin-right="0"
     fit-margin-left="0"
     fit-margin-top="0"
     showgrid="false"
     inkscape:document-rotation="0"
     inkscape:current-layer="layer1"
     inkscape:document-units="mm"
     inkscape:cy="266.58653"
     inkscape:cx="685.81865"
     inkscape:zoom="0.66449955"
     inkscape:pageshadow="2"
     inkscape:pageopacity="0.0"
     borderopacity="1.0"
     bordercolor="#666666"
     pagecolor="#ffffff"
     id="base" />
  <metadata
     id="metadata16">
    <rdf:RDF>
      <cc:Work
         rdf:about="">
        <dc:format>image/svg+xml</dc:format>
        <dc:type
           rdf:resource="http://purl.org/dc/dcmitype/StillImage" />
        <dc:title></dc:title>
      </cc:Work>
    </rdf:RDF>
  </metadata>
  <g
     transform="translate(-50.49293,-142.91682)"
     id="layer1"
     inkscape:groupmode="layer"
     inkscape:label="Layer 1">
    <g
       id="g867">
      <path
         id="path17"
         d="m 72.710382,146.46124 c 3.901363,0 7.057917,3.17713 7.057917,7.08755 0,3.92629 -3.156554,7.10063 -7.057917,7.10063 -3.896526,0 -7.052869,-3.17434 -7.052869,-7.10063 0,-3.91042 3.156343,-7.08755 7.052869,-7.08755 z m 0,3.13168 c 2.175534,0 3.940697,1.76889 3.940697,3.95566 0,2.19278 -1.765163,3.9698 -3.940697,3.9698 -2.176585,0 -3.9367,-1.77702 -3.9367,-3.9698 0,-2.18656 1.760115,-3.95566 3.9367,-3.95566 z"
         fill="#1e429a"
         clip-rule="evenodd"
         fill-rule="evenodd"
         style="fill:#0044aa;stroke-width:0.212365" />
      <path
         id="path19"
         d="m 89.221764,146.46124 c 3.897367,0 7.054973,3.17713 7.054973,7.08755 0,3.92629 -3.157395,7.10063 -7.054973,7.10063 -3.900311,0 -7.058758,-3.17434 -7.058758,-7.10063 0,-3.91042 3.158447,-7.08755 7.058758,-7.08755 z m 0,3.13168 c 2.175534,0 3.937752,1.76889 3.937752,3.95566 0,2.19278 -1.762218,3.9698 -3.937752,3.9698 -2.175533,0 -3.939645,-1.77702 -3.939645,-3.9698 0,-2.18656 1.764322,-3.95566 3.939645,-3.95566 z"
         fill="#1e429a"
         clip-rule="evenodd"
         fill-rule="evenodd"
         style="fill:#0044aa;stroke-width:0.212365" />
      <path
         id="path21"
         d="m 100.04327,142.91682 h 2.09771 c 0.3031,0 0.55214,0.24743 0.55214,0.55618 v 16.59838 c 0,0.3006 -0.24904,0.54996 -0.55214,0.54996 h -2.09771 c -0.308985,0 -0.553819,-0.24936 -0.553819,-0.54996 V 143.473 c -2.1e-4,-0.30875 0.244834,-0.55618 0.553819,-0.55618 z"
         fill="#1e429a"
         clip-rule="evenodd"
         fill-rule="evenodd"
         style="fill:#0044aa;stroke-width:0.212365" />
      <path
         id="path23"
         d="m 113.69363,146.47196 c 3.67188,0.25044 6.57666,3.32272 6.57666,7.07662 0,3.92628 -3.15634,7.10063 -7.05287,7.10063 -1.45617,0 -2.80992,-0.44319 -3.93165,-1.20306 v 4.3536 c 0,0.30875 -0.25178,0.55833 -0.55887,0.55833 h -2.09771 c -0.3031,0 -0.55508,-0.24936 -0.55508,-0.55833 v -10.65469 c 0.32245,-4.15978 3.40811,-6.95397 7.61952,-6.6731 z m -0.47642,3.12096 c 2.17659,0 3.94364,1.76889 3.94364,3.95566 0,2.19278 -1.76705,3.9698 -3.94364,3.9698 -2.17638,0 -3.93964,-1.77702 -3.93964,-3.9698 0,-2.18656 1.76326,-3.95566 3.93964,-3.95566 z"
         fill="#1e429a"
         clip-rule="evenodd"
         fill-rule="evenodd"
         style="fill:#0044aa;stroke-width:0.212365" />
      <path
         id="path25"
         d="m 134.33648,146.56608 h 2.02304 c 0.29132,0 0.52732,0.23736 0.52732,0.53131 v 12.98578 c 0,0.29696 -0.236,0.53817 -0.52732,0.53817 h -2.02304 c -0.29132,0 -0.52332,-0.24121 -0.52332,-0.53817 v -0.66511 c -1.14929,0.81133 -2.55036,1.28625 -4.05386,1.28625 -3.8961,0 -7.06065,-3.17413 -7.06065,-7.08841 0,-3.92135 3.16455,-7.09955 7.06065,-7.09955 1.5035,0 2.90478,0.47705 4.05386,1.29225 v -0.71141 c 0,-0.29546 0.23221,-0.53111 0.52332,-0.53111 z m -4.57718,3.08216 c 2.1768,0 3.94385,1.78004 3.94385,3.96788 0,2.1887 -1.76705,3.96166 -3.94385,3.96166 -2.17637,0 -3.94364,-1.77318 -3.94364,-3.96166 0,-2.18784 1.76727,-3.96788 3.94364,-3.96788 z"
         fill="#1e429a"
         clip-rule="evenodd"
         fill-rule="evenodd"
         style="fill:#0044aa;stroke-width:0.212365" />
      <path
         id="path27"
         d="m 145.94319,160.80745 c -3.6721,-0.24915 -6.57267,-3.32058 -6.57267,-7.07662 0,-3.91728 3.15655,-7.0927 7.04887,-7.0927 1.45239,0 2.81434,0.44233 3.93986,1.20435 v -4.36347 c 0,-0.30083 0.24799,-0.55318 0.55067,-0.55318 h 2.09791 c 0.29911,0 0.55109,0.25235 0.55109,0.55318 v 10.65147 c -0.31887,4.15979 -3.40833,6.96213 -7.61573,6.67697 z m 0.4762,-3.11067 c -2.17637,0 -3.93564,-1.78111 -3.93564,-3.96595 0,-2.19063 1.75927,-3.96681 3.93564,-3.96681 2.1768,0 3.94365,1.77618 3.94365,3.96681 0,2.18484 -1.76706,3.96595 -3.94365,3.96595 z"
         fill="#1e429a"
         clip-rule="evenodd"
         fill-rule="evenodd"
         style="fill:#0044aa;stroke-width:0.212365" />
      <path
         id="path29"
         d="m 57.544747,146.54035 c 2.265138,0 4.274294,1.06176 5.570191,2.71916 0.04901,0.0652 0.107273,0.13658 0.152496,0.20476 0.858813,1.19148 -1.665042,2.77447 -2.760907,1.52789 -0.722303,-0.81733 -1.779045,-1.34285 -2.96178,-1.34285 -2.176585,0 -3.935648,1.76996 -3.935648,3.943 0,2.1767 1.759273,3.93809 3.935648,3.93809 1.147398,0 2.17932,-0.48308 2.897627,-1.2706 0.940635,-1.01717 3.622875,0.35227 2.820012,1.4685 -1.276126,1.76524 -3.363107,2.92091 -5.717639,2.92091 -3.896315,0 -7.051817,-3.16234 -7.051817,-7.0569 0,-3.89348 3.155502,-7.05196 7.051817,-7.05196 z"
         fill="#1e429a"
         clip-rule="evenodd"
         fill-rule="evenodd"
         style="fill:#0044aa;stroke-width:0.212365" />
    </g>
  </g>
</svg>
