<?xml version="1.0" encoding="utf-8"?>
<!-- Generator: Adobe Illustrator 19.0.0, SVG Export Plug-In . SVG Version: 6.00 Build 0)  -->
<svg version="1.1" id="Layer_1" xmlns="http://www.w3.org/2000/svg" xmlns:xlink="http://www.w3.org/1999/xlink" x="0px" y="0px"
	 viewBox="360 68 390.6 80.7" style="enable-background:new 360 68 390.6 80.7;" xml:space="preserve">
<style type="text/css">
	.st0{fill:#F18F39;}
	.st1{fill:#737272;}
</style>
<g>
	<g>
		<path class="st0" d="M411.6,94.6c4.7,0,9.5,0,14.2,0c2.5,0,2.9,0.5,3,2.9c0,6.8,0.1,13.6,0,20.3c-0.1,3.3-0.8,6.5-2.2,9.6
			c-5,11.5-13.6,18.6-26,20.8c-9.2,1.6-17.9,0.1-25.6-5.2c-7.1-4.8-12.2-11.2-14.1-19.8c-0.4-1.9-0.7-3.9-0.7-5.8
			c-0.1-6.6,0-13.2,0-19.9c0-2.6,0.3-2.8,2.8-2.9c2.8,0,5.7,0,8.5,0c2.1,0,2.4,0.4,2.5,2.5c0,5.1,0,10.3,0,15.4
			c0,3.5,0.4,6.8,1.8,10.1c1.3,3,3.2,5.6,5.7,7.6c3.9,3.1,8.3,4.7,13.3,4.6c4.7-0.1,8.7-1.8,12.3-4.6c3.8-3,6.3-6.8,7.1-11.5
			c0.5-2.8,0.2-5.8,0.3-8.7c0-0.7-0.5-1.1-1.3-1.1c-0.6,0-1.1,0-1.7,0c-4.5,0-9,0-13.5,0c-0.6,0-1.3,0-1.9-0.1c-1.4-0.3-2-0.9-2-2.4
			c0-3.1,0-6.1,0-9.2c0-1.9,0.6-2.5,2.6-2.5C401.6,94.5,406.6,94.6,411.6,94.6z"/>
		<path class="st1" d="M603.3,104.8c0-6.5,0-12.9,0-19.4c0-0.6,0-1.1,0-1.7c0-0.9,0.5-1.5,1.4-1.5c2.8,0,5.7,0,8.5,0
			c1.1,0,1.6,0.8,2.2,1.5c2.5,3,5.1,6,7.6,8.9c2.2,2.6,4.3,5.2,6.5,7.8c1.1,1.3,2.1,2.5,3.2,3.8c1.9,2.2,3.8,4.4,5.7,6.6
			c0.1,0.2,0.4,0.2,0.6,0.4c0.1-0.2,0.2-0.4,0.3-0.5c0-0.6,0-1.3,0-1.9c0-7.6,0-15.3,0-22.9c0-0.6,0-1.1,0-1.7
			c0.1-1.2,0.8-1.9,2-1.9c2.4-0.1,4.9-0.1,7.3,0c1.4,0,2,0.7,2.1,2c0,0.5,0,0.9,0,1.4c0,12.8,0,25.7,0,38.5c0,0.5,0,1,0,1.4
			c-0.1,1.3-0.7,2-2.1,2c-2.8,0.1-5.5,0.1-8.3,0c-0.5,0-1.2-0.4-1.6-0.8c-3.2-3.7-6.2-7.5-9.4-11.1c-2.4-2.8-4.9-5.5-7.3-8.3
			c-2.3-2.7-4.5-5.4-6.8-8.1c-0.2-0.2-0.5-0.4-0.7-0.6c-0.1,0.3-0.3,0.7-0.3,1c0,7.8,0,15.6,0,23.4c0,0.7,0,1.4,0,2.1
			c-0.1,2.1-0.4,2.4-2.5,2.4c-2,0-4.1,0-6.1,0c-2,0-2.3-0.3-2.3-2.4c0-6.5,0-13.1,0-19.6C603.3,105.5,603.3,105.2,603.3,104.8z"/>
		<path class="st1" d="M565.7,128.8c-8.3,0-15-1.7-20.9-6.1c-4.7-3.6-7.4-8.3-8.3-14.2c-0.5-3.3-0.2-6.4,0.6-9.5
			c1.2-5.1,4.2-9,8.4-12.1c4.1-3,8.7-4.5,13.7-5c2.4-0.2,4.8-0.5,7.3-0.4c7.4,0.2,14.2,2.2,20,7c2.8,2.3,4.7,5.4,5.8,8.7
			c2,6,2,12.1-0.9,17.9c-2.7,5.5-7.1,9.3-12.9,11.4C574,128.1,569.4,128.9,565.7,128.8z M564.9,119.1c0.9,0,1.8,0.1,2.6,0
			c1.5-0.2,2.9-0.5,4.4-0.9c6.4-1.8,10.8-7.1,10.7-13.7c0-5.1-3.9-9.9-7.9-11.6c-5.3-2.2-10.8-2.3-16.3-1c-3.6,0.8-6.7,2.7-8.6,5.7
			c-4.3,6.5-2.3,15.1,4.8,19.1C557.7,118.5,561.2,119.1,564.9,119.1z"/>
		<path class="st1" d="M712.2,104.9c0-6.5,0-13.1,0-19.6c0-2.6,0.5-3.1,3-3.1c11,0,21.9,0,32.9,0c2.4,0,2.5,0.2,2.5,2.6
			c0,1.3,0,2.7,0,4c0,1.4-0.5,1.8-1.8,2c-0.6,0.1-1.3,0-1.9,0c-7,0-14,0-21.1,0c-0.6,0-1.1,0-1.7,0c-0.7,0-1,0.3-1,1
			c0,2.6,0,5.2,0,7.8c0,0.7,0.3,1,1,1c0.6,0,1.1,0,1.7,0c6.5,0,12.9,0,19.4,0c0.8,0,1.7,0.2,2.4,0.7c1,0.7,1,6.4,0.1,7.2
			c-0.5,0.4-1.4,0.7-2.1,0.7c-2.9,0.1-5.8,0-8.8,0c-3.9,0-7.7,0-11.6,0c-2,0-2,0-2.1,2.1c0,1.7,0,3.5,0,5.2c0,2.7-0.1,2.5,2.6,2.5
			c6.2,0,12.5,0,18.7,0c1.3,0,2.5,0,3.8,0c2,0.1,2.3,0.5,2.3,2.4c0,1.5,0,3,0,4.5c-0.1,1.3-0.4,1.6-1.7,1.7c-0.5,0-0.9,0-1.4,0
			c-10.6,0-21.1,0-31.7,0c-0.2,0-0.5,0-0.7,0c-2.4,0-2.8-0.5-2.9-3c0-0.5,0-0.9,0-1.4C712.2,117.2,712.2,111.1,712.2,104.9z"/>
		<path class="st1" d="M662.9,104.9c0-6.3,0-12.6,0-18.9c0-0.6,0-1.1,0-1.7c0.2-1.6,0.6-2,2.2-2c2.6,0,5.2,0,7.8,0
			c8.4,0,16.7,0,25.1,0c0.6,0,1.1,0,1.7,0c1,0,1.6,0.5,1.7,1.6c0,1.7,0.1,3.3,0,5c-0.1,1.3-0.7,2-2.1,2.1c-0.5,0-1.1,0-1.7,0
			c-7.1,0-14.2,0-21.3,0c-2.4,0-2.4,0-2.4,2.5c0,1.7,0,3.3,0,5c0,2.4,0,2.4,2.3,2.4c4.8,0,9.6,0,14.4,0c2,0,3.9,0,5.9,0
			c1.6,0,1.9,0.3,2,1.9c0,1.6,0,3.2,0,4.7c-0.1,1.6-0.3,1.9-2,1.9c-4.4,0-8.8,0-13.2,0c-2.6,0-5.2,0-7.8,0c-1.1,0-1.6,0.3-1.6,1.5
			c0.1,2.4,0,4.7,0,7.1c0,0.9,0.4,1.3,1.3,1.3c1.3,0,2.5,0,3.8,0c6.5,0,12.9,0,19.4,0c2.5,0,3,0.5,3,3.1c0,1.3,0,2.5,0,3.8
			c-0.1,1.4-0.3,1.6-1.7,1.8c-0.4,0-0.8,0-1.2,0c-10.9,0-21.8,0-32.6,0c-2.7,0-2.9-0.2-2.9-3C662.9,118.1,662.9,111.5,662.9,104.9z"
			/>
		<path class="st1" d="M487.4,127.8c-2.8,0-5.7,0-8.5,0c-5.3,0-10-1.8-14.2-4.9c-6.7-5.1-9.6-12-9-20.3c0.3-4.6,2-8.7,5-12.4
			c3.2-4,7.3-6.5,12.2-8c1.7-0.5,3.5-0.8,5.3-0.9c6.5-0.1,12.9,0,19.4,0c0.4,0,0.8,0,1.2,0c0.9,0,1.5,0.5,1.5,1.5c0,2.2,0,4.4,0,6.6
			c0,1-0.6,1.4-1.5,1.4c-0.6,0-1.3,0-1.9,0c-5.4,0-10.7-0.1-16.1,0c-3.2,0.1-6.3,0.9-9.1,2.7c-5.2,3.4-8.3,11.4-3.7,18.2
			c2.4,3.4,5.5,5.3,9.6,6c3.8,0.6,7.5,0.2,11.3,0.4c1.1,0.1,1.3-0.5,1.3-1.5c0-3.2,0-6.3,0-9.5c0-2.6,0.5-3.2,3.1-3.3
			c1.6,0,3.2-0.1,4.7,0c1.8,0.1,2.2,0.5,2.2,2.3c0,6.4,0,12.8,0,19.2c0,2-0.3,2.2-2.4,2.3C494.4,127.8,490.9,127.8,487.4,127.8z"/>
		<path class="st1" d="M514.3,105c0-6.5,0-13.1,0-19.6c0-0.5,0-1.1,0-1.7c0-0.9,0.5-1.5,1.5-1.5c2.8,0,5.7,0,8.5,0
			c1,0,1.4,0.6,1.4,1.5c0,0.5,0,0.9,0,1.4c0,13.2,0,26.5,0,39.7c0,0.5,0,0.9,0,1.4c0,0.9-0.5,1.5-1.5,1.5c-2.8,0-5.7,0-8.5,0
			c-1,0-1.4-0.6-1.4-1.5c0-0.6,0-1.1,0-1.7C514.3,118.1,514.3,111.5,514.3,105z"/>
		<path class="st0" d="M421.7,81.9c-1.7,0-3.3,0-5,0c-1.6-0.1-2.3-0.7-2.3-2.3c0-3.1-0.1-6.1,0-9.2c0-1.5,0.7-2.2,2.2-2.2
			c3.5-0.1,6.9-0.1,10.4,0c1.3,0,1.7,0.4,1.7,1.7c0.1,3.4,0.1,6.8,0,10.2c0,1.6-0.3,1.8-2,1.9C425,81.9,423.4,81.9,421.7,81.9z"/>
		<path class="st0" d="M367,68.1c1.7,0,3.3,0,5,0c1.5,0,1.8,0.3,1.8,1.8c0,3.4,0.1,6.8,0,10.2c0,1.5-0.4,1.8-1.9,1.8
			c-3.3,0-6.6,0-9.9,0c-1.6,0-1.9-0.3-2-2c0-3.3,0-6.6,0-9.9c0-1.6,0.3-1.9,2-1.9C363.7,68,365.4,68.1,367,68.1z"/>
	</g>
</g>
</svg>
