<svg viewBox="0 0 200 60" id="google" xmlns="http://www.w3.org/2000/svg"><path d="M22.6 0h1.6c5.7.1 11.3 2.4 15.3 6.4-1.5 1.5-3 3-4.4 4.5-2.3-2-5-3.6-7.9-4.2-4.4-.9-9.1-.1-12.8 2.4-4 2.6-6.7 7.1-7.3 11.8-.6 4.7.7 9.6 3.7 13.3 2.9 3.5 7.4 5.8 12 5.9 4.3.2 8.8-1.1 12-4.1 2.5-2.1 3.6-5.4 4-8.5H23.4v-6.4H45c1.1 6.8-.5 14.5-5.7 19.4-3.5 3.5-8.2 5.5-13.1 5.9-4.7.5-9.6-.4-13.8-2.7-5-2.7-9-7.2-11-12.6-1.9-4.9-1.9-10.5-.2-15.4 1.6-4.5 4.6-8.5 8.5-11.3C13.5 1.8 18 .3 22.6 0z" fill="#5d81c0"/><path d="M146.3 1.6h6.6v44h-6.6v-44z" fill="#52aa62"/><path d="M59.7 16.9c4.1-.8 8.5.1 11.8 2.5 3.1 2.2 5.2 5.6 5.8 9.3.8 4.3-.2 9-3 12.4-3 3.8-7.9 5.8-12.7 5.5-4.4-.2-8.6-2.4-11.2-6-2.9-3.9-3.6-9.4-2-14 1.6-5 6.2-8.8 11.3-9.7m.9 5.8c-1.7.4-3.2 1.4-4.3 2.7-3 3.6-2.8 9.4.5 12.7 1.9 1.9 4.7 2.8 7.3 2.3 2.4-.4 4.6-2.1 5.7-4.2 2-3.7 1.4-8.7-1.7-11.6-1.9-1.8-4.8-2.5-7.5-1.9z" fill="#d45344"/><path d="M92.4 16.9c4.7-.9 9.7.4 13.2 3.7 5.7 5.1 6.3 14.6 1.4 20.5-2.9 3.7-7.7 5.7-12.4 5.5-4.5-.1-8.9-2.3-11.5-6-3-4-3.6-9.6-1.9-14.3 1.7-4.9 6.1-8.6 11.2-9.4m.9 5.8c-1.7.4-3.2 1.4-4.3 2.7-3 3.5-2.8 9.3.3 12.6 1.9 2 4.8 3 7.5 2.4 2.4-.5 4.6-2.1 5.7-4.2 2-3.7 1.4-8.8-1.7-11.6-2-1.8-4.9-2.5-7.5-1.9z" fill="#efbb44"/><path d="M120.1 18.7c3.5-2.2 8.3-2.8 12.1-.9 1.2.5 2.2 1.4 3.1 2.3v-2.6h6.2v27.2c0 4.1-1.1 8.5-4 11.4-3.2 3.3-8.2 4.3-12.7 3.6-4.8-.7-8.9-4.2-10.8-8.6 1.9-.9 3.8-1.6 5.7-2.4 1.1 2.5 3.3 4.7 6 5.2s5.9-.2 7.7-2.5c1.9-2.3 1.9-5.6 1.8-8.4-1.4 1.4-3.1 2.6-5 3.1-4.3 1.2-9-.3-12.3-3.2-3.3-2.9-5.3-7.4-5.1-11.8.2-5 3-9.8 7.3-12.4m6.4 3.9c-1.9.3-3.6 1.4-4.8 2.8-2.9 3.5-2.9 9 0 12.4 1.7 2 4.3 3.1 6.9 2.8 2.4-.2 4.7-1.8 5.9-3.9 2-3.6 1.7-8.5-1-11.7-1.7-1.9-4.5-2.9-7-2.4z" fill="#5d81c0"/><path d="M160.8 20.2c3.7-3.5 9.4-4.6 14.2-2.8 4.5 1.7 7.4 6 8.8 10.4-6.7 2.8-13.4 5.5-20 8.3.9 1.8 2.3 3.4 4.3 4 2.7 1 5.9.6 8.1-1.2.9-.7 1.6-1.6 2.3-2.4 1.7 1.1 3.4 2.3 5.1 3.4-2.4 3.6-6.4 6.1-10.8 6.5-4.8.6-9.9-1.3-13-5-5.2-5.9-4.7-15.8 1-21.2m3.3 5.7c-1 1.5-1.5 3.4-1.4 5.2 4.5-1.9 8.9-3.7 13.4-5.6-.7-1.7-2.5-2.8-4.3-3.1-3-.4-6 1.1-7.7 3.5z" fill="#d45344"/></svg>