<svg viewBox="0 0 200 60" id="marvell" xmlns="http://www.w3.org/2000/svg"><path d="M84.9 20.9l-6.7 10.7-6.6-10.7h-3V39h3V26.7c0-.2 0-.4-.1-.7.1.4.4.8.6 1.2l4.8 7.8h2.4l4.8-7.8c.1-.2.2-.4.4-.6s.3-.4.4-.6c0 .2 0 .5-.1.7V39h2.9V20.9h-2.8zM94 39l5.8-14.2c0-.1.1-.3.2-.5s.1-.3.2-.6c0 .2.1.4.2.6s.1.3.2.5l3.2 7.8H97l1.8 2.7h6.1l1.6 3.8h3.1L101.9 21h-3.2L91 39h3zm45.7 0l7.4-18.1h-3.2l-5.2 13.7c-.2.5-.3 1-.5 1.6-.2-.6-.3-1.1-.5-1.6l-5.2-13.7h-3.3l7.4 18.1h3.1zm28.1-18.1V39h11.8v-2.7h-8.8V20.9h-3zm15.4 0V39h11.9v-2.7h-9V20.9h-2.9zm-29.8 2.7h9.5v-2.7h-12.4V39h12.6v-2.7h-9.7V23.6zM127 26.4c0-1.7-.5-3-1.6-4s-2.8-1.5-5.3-1.5h-7.4V39h3V23.6h4.5c2.4 0 3.7 1 3.7 3 0 2.2-1.3 3.2-3.9 3.2h-2.4l-1.7 2.6h4l5 6.6h3.6l-5.5-7.3c2.6-.9 4-2.7 4-5.3zm34.7 2.2h-8.1l1.8 2.7h6.2v-2.7h.1zM22.3 23.4l6 6.1c.1.1.3.2.4.2s.3-.1.4-.2l6-6.1c.1-.1.2-.3.2-.4 0-.2-.1-.3-.3-.3H22.4c-.2 0-.3.1-.3.3 0 .2.1.3.2.4zM57.4 1.6c0-.2-.1-.3-.3-.3-.1 0-.2.1-.4.2l-4.9 5v47l4.9 5c.1.1.2.2.4.2s.3-.1.3-.3V1.6zM0 58.4c0 .2.1.3.3.3.1 0 .2-.1.4-.2l4.9-5v-47l-4.9-5c-.2-.1-.3-.2-.4-.2-.2 0-.3.1-.3.3v56.8zm12.8-44.6h31.8l4.5-4.5c.1-.1.2-.2.2-.4s-.1-.3-.3-.3H8.4c-.2 0-.3.1-.3.3 0 .1.1.2.2.4l4.5 4.5zM8.3 50.7c-.1.1-.2.2-.2.4s.1.3.3.3h40.5c.2 0 .3-.1.3-.3 0-.1-.1-.2-.2-.4l-4.5-4.5H12.8l-4.5 4.5zm33.9-6.9c.1.1.2.2.4.2s.3-.1.3-.3V16.4c0-.2-.1-.3-.3-.3-.1 0-.2.1-.4.2L37.5 21v18l4.7 4.8zM19.8 39V21l-4.7-4.7c-.1-.1-.2-.2-.4-.2s-.3.1-.3.3v27.2c0 .2.1.3.3.3.1 0 .2-.1.4-.2l4.7-4.7zm175.3-18.1v.3h.8v2h.4v-2h.8v-.3h-2zm4.5 0l-.9 1.4-.8-1.4h-.4v2.3h.4v-1.7s0 .1.1.2l.6 1h.3l.6-1v-.2 1.7h.4v-2.3h-.3z" fill="#030202"/></svg>