<svg viewBox="0 0 200 60" id="t-mobile" xmlns="http://www.w3.org/2000/svg"><path d="M76.9 15.3l-9.5 34.1h-2.2l-9.9-33.8v27.5c0 2.7 1.4 4 4 4h1v2.2H47.7v-2.2h.7c2.7 0 4-1.4 4-4V16.5c0-2.7-1.4-4-4-4h-.7v-2.2h12.6l7.5 27.3 7.6-27.3h12.5v2.3h-.7c-2.7.1-4 1.4-4 4v26.6c0 2.7 1.4 4 4 4h.7v2.2H72.4v-2.2h.5c2.7 0 4-1.4 4-4V15.3zm36.2 20.6c0 7.7-4.3 14.4-12.3 14.4s-12.2-6.6-12.2-14.4 4.2-14.4 12.2-14.4 12.3 6.6 12.3 14.4zm-17.9 0c0 7.9 1.8 12 5.6 12s5.7-4 5.7-12-1.9-12-5.7-12c-3.8 0-5.6 4-5.6 12zm22.5-20.6c0-2-.8-2.8-2.8-2.8h-.8v-2.2h9.4v14.1c1.5-2 3.9-3.1 6.4-3 7.2 0 11 6.1 11 14.3s-3.7 14.2-11 14.2c-3.2 0-6.2-1.3-8.3-3.6l-2 3H117c.4-2 .6-4 .7-6v-28zm5.3 20.4c0 3.7.7 11.6 5.8 11.6 4.8 0 5.4-7.9 5.4-11.6 0-3.7-.4-11.6-5.2-11.6-5.1 0-6 8-6 11.6zm30 8.6c0 2 .8 2.8 2.8 2.8h.9v2.2h-13.3v-2.2h.9c2 0 2.8-.8 2.8-2.8v-17c0-2-.8-2.8-2.8-2.8h-.6v-2.2h9.3v22zm.3-30.9c.1 1.9-1.5 3.6-3.4 3.6h-.2c-2 0-3.6-1.6-3.6-3.6s1.6-3.6 3.6-3.6h.1c1.9 0 3.5 1.6 3.5 3.6zm15.3 30.9c0 2 .8 2.8 2.8 2.8h.9v2.2h-13.1v-2.2h.8c2 0 2.8-.8 2.8-2.8v-29c0-2-.8-2.8-2.8-2.8h-.5v-2.2h9.2v34h-.1zm12.2-8.3c.2 4.5.4 11.5 6.2 11.5 3.8 0 5.8-3.2 7.1-6.2l2.3 1.2c-2.2 4.5-4.9 7.7-10.4 7.7-8.3 0-11.7-7.1-11.7-14.4 0-7 3.4-14.4 11.2-14.4 8.3 0 10.9 8 11.1 14.5l-15.8.1zm9.6-2.5c-.1-6.5-1.7-9.6-4.7-9.6s-4.7 3.3-4.9 9.6h9.6zM7.8 36.1H0v-7.8h7.8v7.8zM0 10.3v13.3h2.3v-.4C2.3 16.9 5.9 13 12.5 13h.4v28.2c0 3.9-1.6 5.5-5.5 5.5H6.3v2.7h20.3v-2.7h-1.2c-3.9 0-5.5-1.6-5.5-5.5V13h.4c6.6 0 10.2 3.9 10.2 10.2v.4h2.3V10.3H0zm25 25.8h7.8v-7.8H25v7.8zm175-12.9c0 .9-.8 1.6-1.7 1.6s-1.6-.8-1.6-1.7c0-.9.8-1.6 1.7-1.6s1.6.7 1.7 1.6c-.1 0-.1 0-.1.1zm-.3 0c0-.7-.6-1.3-1.4-1.3-.7 0-1.3.6-1.3 1.4 0 .7.6 1.3 1.4 1.3.7 0 1.3-.6 1.3-1.4zm-1 .2l.4.6h-.4l-.3-.6h-.3v.6h-.3v-1.6h.7c.3 0 .5.2.6.4v.1c-.1.2-.2.4-.4.5zm-.6-.3h.4c.2 0 .3-.1.3-.2 0-.2-.1-.2-.3-.2h-.4v.4z" fill="#dc1775"/></svg>