<svg version="1.2" xmlns="http://www.w3.org/2000/svg" viewBox="0 0 1550 374" width="1550" height="374">
	<title>trip-com-logo-svg</title>
	<defs>
		<clipPath clipPathUnits="userSpaceOnUse" id="cp1">
			<path d="m0-587.73h1550v1549.46h-1550z"/>
		</clipPath>
	</defs>
	<style>
		.s0 { fill: #ffb400 } 
		.s1 { fill: #2346ff } 
	</style>
	<g id="Layer">
		<g id="Layer-1">
			<g id="Clip-Path" clip-path="url(#cp1)">
				<g id="Layer">
					<path id="Layer" class="s0" d="m759.9 295.5c-21 0-37.9-16.9-37.9-37.9 0-20.9 16.9-37.9 37.9-37.9 21 0 37.9 17 37.9 37.9 0 21-16.9 37.9-37.9 37.9z"/>
					<path id="Layer" class="s1" d="m226.6 8.7v52.6h-81.9v224.7h-62.8v-224.7h-81.9v-52.6z"/>
					<path id="Layer" class="s1" d="m961.5 225.8l41.4 41.3c-18.1 18.1-44.8 30.1-73.3 30.1-57.7 0-104.2-46.5-104.2-104.2 0-57.7 46.5-104.2 104.2-104.2 28.5 0 54.3 11.2 73.3 30.2l-41.4 41.3c-7.7-8.6-18.9-13.8-31.9-13.8-24.1 0-43.9 19.8-43.9 45.7 0 24.9 19.8 45.6 43.9 45.6 13 0 24.2-6 31.9-12z"/>
					<path id="Layer" fill-rule="evenodd" class="s1" d="m693.6 190.4q0 0.3 0 0.5 0 0.2 0 0.4c-0.5 57.3-45.1 103.4-100.8 103.4-19.8 0-37.1-6.9-50.9-18.1v97.3h-62.9v-277.3h56.9v17.2c13.8-16.4 34.5-26.7 56.9-26.7 40 0 74.3 23.7 90.6 58.4 6.5 13.6 10.2 28.9 10.2 44.9zm-63.8 1.8c0-25.3-19.6-45.7-43.9-45.7-24.3 0-44 20.4-44 45.7 0 25.2 19.7 45.6 44 45.6 24.3 0 43.9-20.4 43.9-45.6zm-226.6-121.5c-19.5 0-35.3-15.8-35.3-35.3 0-19.5 15.8-35.3 35.3-35.3 19.6 0 35.3 15.8 35.3 35.3 0 19.5-15.7 35.3-35.3 35.3zm-31 25.9h62.9v189.4h-62.9zm1177.8 59.5v130h-62.9v-118c0-16.3-12.1-29.3-27.6-29.3-15.5 0-27.6 13-27.6 29.3v118h-59.4v-118c0-16.3-12.1-29.3-27.6-29.3-15.5 0-27.5 13-27.5 29.3v117.2h-62.9v-188.7h56.8v21.6c12.1-19.8 30.2-31 55.2-31 25 0 45.6 11.2 56.8 31 12.1-21.6 32.8-31 58.6-31 42.2 0 68.9 26.7 68.1 68.9zm-430.8 139.5c-57.7 0-104.3-46.6-104.3-104.2 0-57.6 46.6-104.2 104.3-104.2 57.6 0 104.2 46.6 104.2 104.2 0 57.6-46.6 104.2-104.2 104.2zm43.9-103.4c0-25.2-19.6-45.6-43.9-45.6-24.3 0-44 20.4-44 45.6 0 25.3 19.7 45.7 44 45.7 24.3 0 43.9-20.4 43.9-45.7zm-824.5-94.7v57.7c-2.6 0-6-0.8-9.5-0.8-28.4 0-52.5 19.8-52.5 52.5v79.2h-62.9v-189.5h56.8v30.2c12.1-19 32.8-31 56.9-31 4.3 0 8.6 0.8 11.2 1.7z"/>
				</g>
			</g>
		</g>
	</g>
</svg>