<?xml version="1.0" encoding="utf-8"?><svg version="1.1" xmlns="http://www.w3.org/2000/svg" xmlns:xlink="http://www.w3.org/1999/xlink" x="0px" y="0px" viewBox="0 0 601.06 134.74" style="enable-background:new 0 0 601.06 134.74;" xml:space="preserve"><style type="text/css">.st0{fill:#F50A23;}.st1{fill:url(#SVGID_1_);}</style><switch><g><g id="Layer_1"><g><g><path class="st0" d="M508.45,131.7h29.6V77.62c0-12.34,7.21-21.07,17.84-21.07c10.25,0,15.56,7.21,15.56,17.46v57.69h29.6 V68.32c0-21.45-12.9-36.63-33.78-36.63c-13.28,0-22.58,5.69-29.6,16.13h-0.57V34.54h-28.65V131.7z M450.38,31.88 c-30.93,0-51.62,22.2-51.62,51.43c0,29.04,20.68,51.43,51.62,51.43S502,112.35,502,83.31C502,54.09,481.32,31.88,450.38,31.88z M450.19,112.91c-14.04,0-21.44-11.76-21.44-29.6c0-18.03,7.4-29.6,21.44-29.6c14.04,0,21.82,11.58,21.82,29.6 C472.02,101.15,464.24,112.91,450.19,112.91z M314.51,131.7h83.12v-23.34h-47.06v-0.57l44.97-50.48V34.54h-81.03v23.34h45.54 v0.57l-45.54,50.86V131.7z M276.55,131.7h29.79V34.54h-29.79V131.7z M207.48,131.7h29.6V87.11c0-20.31,12.15-29.23,30.74-26.76 h0.57V34.73c-1.52-0.57-3.23-0.76-6.07-0.76c-11.58,0-19.36,5.31-26,16.7h-0.57V34.54h-28.27V131.7z M153.01,113.11 c-13.09,0-21.06-8.54-22.58-21.63h70.02c0.19-20.88-5.31-37.58-16.89-48.01c-8.16-7.59-18.98-11.77-32.64-11.77 c-29.22,0-49.53,22.2-49.53,51.24c0,29.22,19.36,51.62,51.43,51.62c12.15,0,21.82-3.23,29.79-8.73 c8.54-5.88,14.61-14.42,16.32-22.96h-28.46C167.63,109.31,161.74,113.11,153.01,113.11z M151.5,52.95 c10.44,0,17.65,7.78,18.79,19.17h-39.66C132.9,60.54,139.16,52.95,151.5,52.95z M276.55,0h29.79v26.38h-29.79V0z"/></g></g><g><radialGradient id="SVGID_1_" cx="70.0114" cy="105.666" r="53.8797" fx="37.3074" fy="105.3165" gradientTransform="matrix(0.3584 -0.9336 1.1023 0.4232 -71.559 126.3146)" gradientUnits="userSpaceOnUse"><stop  offset="0.0573" style="stop-color:#F5FF1E"/><stop  offset="0.2939" style="stop-color:#F5FF1E"/><stop  offset="0.3038" style="stop-color:#F5FA1E"/><stop  offset="0.4865" style="stop-color:#F5A620"/><stop  offset="0.648" style="stop-color:#F56321"/><stop  offset="0.7823" style="stop-color:#F53322"/><stop  offset="0.8843" style="stop-color:#F51523"/><stop  offset="0.9421" style="stop-color:#F50A23"/></radialGradient><path class="st0" d="M0,34.54l36.84,95.96c0.28,0.73,0.98,1.21,1.76,1.21h29.89c-0.78,0-1.48-0.48-1.76-1.21L29.89,34.54H0z"/><path class="st0" d="M107.09,34.54L70.25,130.5c-0.28,0.73-0.98,1.21-1.76,1.21H38.6c0.78,0,1.48-0.48,1.76-1.21L77.2,34.54 H107.09z"/></g></g></g></switch></svg>