<svg viewBox="0 0 200 60" id="vodafone" xmlns="http://www.w3.org/2000/svg"><path d="M49.3 30c0 13.6-11 24.7-24.7 24.7S0 43.6 0 30 11 5.3 24.7 5.3 49.3 16.4 49.3 30" fill="#e2372c"/><path d="M24.9 43.8c-6.8 0-13.8-5.8-13.9-15 0-6.1 3.3-12.1 7.5-15.6 4.1-3.4 9.8-5.6 14.9-5.6.7 0 1.4.1 1.8.2-4.5.9-8.1 5.1-8 9.8v.4c7.5 1.8 10.9 6.4 10.9 12.6.1 6.3-4.9 13.1-13.2 13.2" fill="#fff"/><path d="M65.2 40.2l-7.5-18h4.9l4.7 11.9 4.6-11.9h4.7l-7.3 18h-4.1zm24.5-9.1c0-.7-.1-1.5-.3-2.1-.2-.7-.4-1.3-.8-1.7-.3-.5-.8-.9-1.3-1.2-.5-.3-1.1-.4-1.8-.4s-1.3.1-1.8.4-.9.7-1.3 1.2c-.3.5-.6 1.1-.8 1.7-.2.7-.3 1.4-.3 2.1 0 .8.1 1.5.3 2.2.2.7.4 1.2.8 1.7.3.5.8.9 1.3 1.2s1.1.4 1.8.4 1.3-.1 1.8-.4c.5-.3.9-.7 1.3-1.2.3-.5.6-1.1.8-1.7.2-.7.3-1.4.3-2.2m4.6 0c0 1.2-.2 2.3-.5 3.5-.4 1.1-.9 2.1-1.6 3s-1.6 1.6-2.7 2.2c-1.1.5-2.3.8-3.8.8-1.4 0-2.7-.3-3.8-.8-1.1-.5-2-1.3-2.7-2.2s-1.2-1.9-1.6-3-.5-2.3-.5-3.5.2-2.3.5-3.4c.4-1.1.9-2.1 1.6-3s1.6-1.6 2.7-2.1 2.3-.8 3.8-.8c1.4 0 2.7.3 3.8.8 1.1.5 2 1.2 2.7 2.1s1.3 1.9 1.6 3 .5 2.3.5 3.4m13.9-4.9c-.9-.3-1.7-.5-2.5-.5s-1.5.2-2 .5c-.6.3-1 .7-1.4 1.2s-.6 1.1-.8 1.7c-.2.6-.3 1.3-.3 2s.1 1.5.2 2.2c.2.7.4 1.3.7 1.8.3.5.8.9 1.3 1.2s1.1.5 1.8.5c.6 0 1.2-.2 1.7-.5.6-.3 1-.7 1.3-1.1v-9zm.3 14l-.2-1.4c-.4.5-1 .9-1.7 1.2-.7.4-1.5.5-2.5.5-1.2 0-2.3-.3-3.3-.8-.9-.5-1.7-1.2-2.4-2.1-.6-.9-1.1-1.9-1.5-3-.3-1.1-.5-2.3-.5-3.6 0-1.2.2-2.3.5-3.4s.9-2.1 1.6-3 1.6-1.6 2.7-2.1 2.3-.8 3.8-.8c.9 0 2 .2 3.1.5v-7h4.6v24.9l-4.2.1zm17.3-8.4c-.5 0-1 .1-1.5.1-.5.1-1 .1-1.5.2-1 .2-1.7.5-2.1 1s-.6 1-.6 1.6.2 1.1.7 1.4c.4.4 1.1.5 1.9.5.6 0 1.2-.1 1.7-.4.6-.2 1-.6 1.4-.9v-3.5zm.4 8.4l-.2-1.3c-.5.6-1.1 1-1.9 1.3s-1.6.5-2.5.5c-.8 0-1.5-.1-2.2-.4-.7-.3-1.3-.6-1.9-1.1-.5-.5-1-1.1-1.3-1.8s-.5-1.5-.5-2.4.2-1.7.5-2.4.8-1.3 1.4-1.7c.6-.5 1.3-.9 2.1-1.2.8-.3 1.6-.5 2.4-.7.6-.1 1.3-.2 2-.3.7-.1 1.3-.1 1.8-.2v-.3c0-1-.3-1.7-.8-2.1s-1.2-.6-2.1-.6c-.5 0-1 .1-1.5.2s-.9.3-1.3.5-.7.4-1 .6-.5.4-.7.5l-1.5-3.2c.2-.2.5-.4.9-.6s.9-.5 1.5-.7 1.2-.4 2-.6 1.5-.2 2.4-.2c1 0 1.9.1 2.7.4.8.3 1.5.7 2.1 1.2.6.6 1.1 1.3 1.4 2.1.3.9.5 1.9.5 3.1v11.6l-4.3-.2zm18.5-20.8c-.1-.1-.4-.2-.9-.3-.4-.1-1-.2-1.7-.2-.6 0-1.2.2-1.6.6-.4.4-.7 1-.7 1.9v.9h3.9V26h-3.8v14.3h-4.6V26h-2.4v-3.7h2.4v-1c0-1.2.1-2.2.4-3 .3-.8.7-1.5 1.3-2 .5-.5 1.2-.9 1.9-1.1.7-.2 1.5-.4 2.4-.4 1.1 0 2 .1 2.8.3.7.2 1.2.4 1.3.4l-.7 3.9zm12.6 11.7c0-.7-.1-1.5-.3-2.1-.2-.7-.4-1.3-.8-1.7-.3-.5-.8-.9-1.3-1.2-.5-.3-1.1-.4-1.8-.4s-1.3.1-1.8.4-.9.7-1.3 1.2c-.3.5-.6 1.1-.8 1.7-.2.7-.3 1.4-.3 2.1 0 .8.1 1.5.3 2.2s.4 1.2.8 1.7c.3.5.8.9 1.3 1.2s1.1.4 1.8.4 1.3-.1 1.8-.4c.5-.3.9-.7 1.3-1.2.3-.5.6-1.1.8-1.7.3-.7.3-1.4.3-2.2m4.6 0c0 1.2-.2 2.3-.5 3.5-.4 1.1-.9 2.1-1.6 3-.7.9-1.6 1.6-2.7 2.2-1.1.5-2.3.8-3.8.8-1.4 0-2.7-.3-3.8-.8s-2-1.3-2.7-2.2-1.2-1.9-1.6-3c-.4-1.1-.5-2.3-.5-3.5s.2-2.3.5-3.4c.4-1.1.9-2.1 1.6-3 .7-.9 1.6-1.6 2.7-2.1s2.3-.8 3.8-.8c1.4 0 2.7.3 3.8.8s2 1.2 2.7 2.1 1.3 1.9 1.6 3 .5 2.3.5 3.4m14.4 9.1V30c0-1.4-.3-2.4-.9-3.2-.6-.7-1.4-1.1-2.4-1.1-.7 0-1.4.2-2 .6s-1.1.8-1.6 1.2v12.8h-4.6v-18h4.2l.2 1.4c.7-.6 1.5-1.1 2.4-1.4s1.8-.5 2.7-.5 1.8.1 2.6.4 1.5.7 2.1 1.4c.6.6 1 1.4 1.3 2.4s.5 2.2.5 3.6v10.6h-4.5zm19-11.1c0-.6-.2-1.2-.4-1.6-.2-.5-.5-.8-.8-1.1-.3-.3-.6-.5-1-.6s-.7-.2-1.1-.2c-.8 0-1.6.3-2.3.9s-1.2 1.5-1.3 2.7h6.9v-.1zm-7 3.3c.1 1.5.6 2.6 1.4 3.3.8.7 1.9 1 3.3 1 .6 0 1.2-.1 1.8-.2.5-.1 1-.3 1.5-.4.4-.2.8-.3 1.1-.5s.5-.3.7-.5l1.2 3.8c-.2.1-.5.3-.8.5-.4.2-.9.4-1.4.6-.6.2-1.2.3-2 .5-.8.1-1.6.2-2.5.2-1.2 0-2.3-.2-3.3-.6-1.1-.4-2-1-2.8-1.7-.8-.8-1.4-1.8-1.9-2.9-.5-1.2-.7-2.6-.7-4.2 0-1.5.2-2.9.7-4 .4-1.2 1-2.2 1.8-2.9.8-.8 1.6-1.4 2.7-1.8 1-.4 2.1-.6 3.2-.6s2.2.2 3.2.6 1.8 1 2.5 1.7c.7.8 1.3 1.8 1.7 3s.6 2.7.6 4.4v.8h-12v-.1z" fill="#e2372c"/></svg>