<?xml version="1.0" standalone="no"?>
<!DOCTYPE svg PUBLIC "-//W3C//DTD SVG 20010904//EN" "http://www.w3.org/TR/2001/REC-SVG-20010904/DTD/svg10.dtd">
<svg version="1.0" xmlns="http://www.w3.org/2000/svg"
  width="1522.000000pt" height="589.000000pt" viewBox="0 0 1522.000000 589.000000"
  preserveAspectRatio="xMidYMid meet">

  <g transform="translate(0.000000,589.000000) scale(0.100000,-0.100000)"
    stroke="none">
    <path
      fill="#006c8b"
      d="M4288 4740 c-44 -13 -83 -40 -105 -73 -11 -18 -130 -221 -263 -452
-252 -436 -550 -948 -555 -953 -1 -2 -132 221 -291 495 -353 611 -326 569
-374 593 -38 19 -57 20 -659 20 l-619 0 -107 -185 -107 -185 -565 0 c-396 0
-571 -3 -586 -11 -35 -18 -57 -51 -57 -89 0 -27 28 -83 118 -240 836 -1452
1219 -2109 1239 -2127 30 -29 101 -31 132 -5 11 9 150 240 307 512 158 272
332 573 387 668 55 94 103 172 106 172 3 -1 224 -380 491 -843 267 -462 497
-855 512 -872 22 -25 34 -30 72 -30 35 0 51 6 70 25 22 23 185 302 781 1335
111 193 426 737 700 1210 274 473 505 875 513 892 21 44 7 99 -31 127 -28 21
-37 21 -555 23 -290 1 -539 -2 -554 -7z" />
    <path
      fill="#006c8b"
      d="M9369 4748 c0 -2 -8 -39 -17 -83 l-17 -80 -357 -3 -358 -2 0 -100 0
-100 331 0 c261 0 330 -3 326 -12 -2 -7 -10 -30 -18 -50 l-13 -38 -268 0 -268
0 0 -100 0 -100 219 -2 219 -3 -34 -52 -34 -53 -277 0 -278 0 2 -102 2 -103
190 0 c105 0 191 -3 191 -7 0 -3 -37 -40 -82 -82 -83 -78 -218 -176 -296 -215
-24 -12 -42 -26 -40 -32 7 -20 144 -188 154 -189 15 0 164 100 245 166 91 73
202 183 280 277 l64 78 257 0 257 0 123 -123 c68 -68 166 -153 218 -190 92
-65 297 -178 323 -178 7 0 40 46 73 102 l61 102 -104 42 c-58 24 -143 67 -189
96 -82 51 -184 132 -184 146 0 4 93 7 206 7 l205 0 2 103 2 102 -552 0 c-309
0 -553 4 -553 9 0 5 12 29 26 55 l26 46 449 0 449 0 0 100 0 100 -402 0 c-222
0 -406 0 -410 0 -3 0 2 21 12 48 l18 47 426 3 426 2 0 100 0 100 -396 0 -397
0 6 43 c3 23 9 61 13 85 l7 42 -132 0 c-72 0 -131 -1 -132 -2z" />
    <path
      fill="#006c8b"
      d="M12380 4121 l0 -630 -32 -6 c-18 -3 -174 -30 -346 -59 -172 -29 -314
-55 -316 -57 -3 -3 33 -229 38 -236 1 -1 143 23 316 53 173 30 321 54 328 54
9 0 12 -55 12 -240 l0 -240 125 0 125 0 0 264 0 264 93 16 c50 10 107 20 125
23 17 3 32 8 32 12 0 18 -38 222 -41 226 -3 2 -51 -4 -107 -14 l-102 -18 -2
606 -3 606 -122 3 -123 3 0 -630z" />
    <path
      fill="#006c8b"
      d="M13440 4743 c0 -5 -2 -89 -3 -188 l-2 -180 -137 -3 -138 -3 0 -114 0
-114 138 -3 137 -3 0 -223 0 -223 -135 -53 -135 -53 -3 -131 -3 -131 136 55
c74 30 137 54 140 54 3 0 4 -102 3 -227 l-3 -228 -107 -3 -106 -3 35 -104 35
-105 137 0 c127 0 141 2 172 23 67 45 69 54 69 418 l0 326 108 42 109 43 -20
116 c-11 65 -21 118 -22 120 -1 1 -19 -5 -39 -13 -20 -9 -59 -24 -86 -35 l-50
-20 0 180 0 180 115 0 115 0 0 115 0 114 -112 3 -113 3 -3 188 -2 187 -115 0
c-63 0 -115 -3 -115 -7z" />
    <path
      fill="#006c8b"
      d="M14400 4600 l0 -150 -225 0 -225 0 0 -115 0 -115 223 -2 222 -3 0
-130 0 -130 -222 -3 -223 -2 0 -110 0 -109 36 -3 c35 -3 36 -5 75 -98 51 -122
124 -253 200 -359 46 -64 57 -86 47 -93 -74 -50 -280 -138 -418 -179 -41 -12
-77 -23 -79 -25 -4 -3 96 -194 109 -208 25 -26 492 166 577 236 9 7 32 -3 82
-36 84 -56 206 -113 338 -159 168 -59 150 -62 221 45 33 51 62 99 64 106 2 9
-34 25 -112 48 -106 32 -309 123 -354 159 -19 14 -17 17 35 72 95 100 182 239
255 411 42 99 44 107 44 202 l0 100 -210 0 -210 0 0 135 0 135 240 0 240 0 0
115 0 115 -240 0 -240 0 0 150 0 150 -125 0 -125 0 0 -150z m390 -883 c0 -16
-84 -160 -123 -212 -17 -22 -56 -69 -86 -104 l-55 -64 -49 53 c-78 85 -207
290 -207 330 0 6 89 10 260 10 204 0 260 -3 260 -13z" />
    <path
      fill="#006c8b"
      d="M6437 4656 l-77 -82 140 -127 c76 -70 143 -127 148 -127 5 0 45 39
88 86 l78 87 -26 21 c-14 11 -78 67 -141 124 -63 56 -119 101 -123 101 -5 -1
-44 -38 -87 -83z" />
    <path
      fill="#006c8b"
      d="M11490 4719 c-80 -29 -315 -84 -465 -109 -71 -12 -135 -23 -142 -25
-8 -3 -1 -36 23 -109 20 -59 39 -106 42 -106 4 0 54 9 112 20 58 11 108 20
112 20 5 0 8 -56 8 -125 l0 -125 -160 0 -160 0 0 -115 0 -115 138 0 c76 0 141
-3 145 -6 7 -7 -44 -126 -111 -259 -42 -84 -122 -213 -187 -302 -15 -20 -13
-27 43 -139 l59 -118 51 69 c28 39 80 118 114 177 35 59 65 107 68 108 3 0 4
-157 2 -350 l-3 -350 126 0 125 0 0 418 0 417 73 -112 c39 -62 76 -113 80
-113 8 -1 147 177 147 188 0 6 -134 165 -227 268 -40 45 -73 87 -73 93 0 7 45
11 143 11 l142 0 0 115 0 115 -142 0 -143 0 0 153 0 153 113 33 c61 18 124 38
139 44 l26 12 -69 93 c-38 50 -75 92 -82 91 -6 0 -37 -9 -67 -20z" />
    <path
      fill="#006c8b"
      d="M6930 4565 l0 -115 510 0 510 0 0 -730 c0 -842 15 -750 -120 -750
-62 0 -81 -3 -77 -12 2 -7 13 -55 23 -105 l18 -93 131 0 c156 0 198 14 242 81
l28 43 3 898 2 898 -635 0 -635 0 0 -115z" />
    <path
      fill="#006c8b"
      d="M11930 4556 c-41 -46 -75 -87 -75 -92 0 -5 64 -69 142 -142 l142
-133 78 82 c43 45 78 87 78 93 0 10 -278 277 -287 275 -1 0 -37 -38 -78 -83z" />
    <path
      fill="#006c8b"
      d="M6710 4170 l0 -100 60 0 60 0 -2 -377 -3 -378 -78 -5 c-42 -3 -78 -9
-78 -15 -3 -38 15 -195 22 -195 21 0 657 50 712 56 l57 6 0 -131 0 -131 115 0
115 0 0 139 0 138 80 7 80 7 0 96 0 95 -80 -4 -80 -3 0 347 0 348 60 0 60 0 0
100 0 100 -550 0 -550 0 0 -100z m750 -155 l0 -55 -205 0 -205 0 0 55 0 55
205 0 205 0 0 -55z m0 -300 l0 -65 -202 2 -203 3 -3 63 -3 62 206 0 205 0 0
-65z m0 -295 c0 -54 -2 -60 -22 -64 -21 -4 -330 -26 -371 -26 -15 0 -17 11
-17 75 l0 75 205 0 205 0 0 -60z" />
    <path fill="#006c8b"
      d="M6340 3500 l0 -740 125 0 125 0 0 740 0 740 -125 0 -125 0 0 -740z" />
    <path
      fill="#006c8b"
      d="M11882 3980 l-82 -88 148 -137 147 -136 83 88 83 88 -49 45 c-27 25
-94 86 -149 137 l-99 92 -82 -89z" />
    <path
      fill="#006c8b"
      d="M9388 3504 l-3 -196 -94 -39 c-52 -22 -96 -38 -98 -35 -2 2 18 23 44
46 l48 42 -60 56 c-34 32 -80 70 -103 86 l-42 29 -42 -36 c-128 -107 -125
-104 -102 -121 49 -35 144 -118 144 -126 0 -8 -43 -24 -287 -110 -68 -23 -123
-46 -123 -51 0 -12 80 -192 89 -202 5 -5 146 48 314 117 168 69 308 126 311
126 8 0 8 -104 0 -124 -5 -13 -26 -16 -126 -16 -96 0 -119 -3 -115 -13 3 -8
13 -51 24 -96 l18 -82 172 3 c155 3 174 5 199 24 62 46 69 64 72 205 2 71 6
129 8 129 12 0 315 -157 424 -219 68 -39 124 -70 125 -68 1 1 34 43 73 94 51
65 68 94 59 100 -6 4 -94 51 -194 103 l-182 96 69 69 c39 38 69 73 68 77 -2 3
-41 36 -87 71 l-84 65 -37 -47 c-21 -25 -60 -68 -88 -95 l-51 -49 -48 21 -48
21 -3 170 -2 171 -120 0 -120 0 -2 -196z" />
    <path
      fill="#006c8b"
      d="M10254 2320 c-242 -31 -328 -146 -369 -495 -22 -194 -20 -386 6 -470
29 -95 90 -155 185 -185 107 -33 270 -45 438 -31 215 17 236 21 246 45 5 12
18 138 29 281 12 143 24 277 27 298 l6 37 -220 0 -219 0 -7 -52 c-3 -29 -6
-68 -6 -85 l0 -33 105 0 c123 0 111 21 94 -173 -14 -145 -2 -133 -127 -140
-102 -6 -225 8 -263 30 -72 42 -87 127 -65 380 23 263 57 353 146 391 49 21
259 27 431 13 77 -7 143 -10 147 -7 3 3 7 42 10 85 4 78 4 80 -19 85 -118 26
-453 41 -575 26z" />
    <path
      fill="#006c8b"
      d="M13492 2319 c-180 -23 -263 -95 -307 -266 -41 -156 -69 -475 -54
-616 16 -157 72 -236 193 -272 96 -29 252 -39 413 -26 81 6 150 15 154 19 4 4
10 45 13 93 l7 85 -88 -9 c-48 -5 -146 -6 -216 -4 -149 6 -189 21 -220 80 -24
46 -25 185 -2 398 22 216 46 277 122 315 34 17 62 19 250 19 l213 -1 5 31 c13
89 12 135 -4 139 -72 22 -358 31 -479 15z" />
    <path
      fill="#006c8b"
      d="M6340 2307 c0 -8 41 -262 90 -565 50 -304 90 -561 90 -572 0 -19 7
-20 153 -20 l152 0 149 400 c82 220 152 400 155 400 4 0 43 -180 86 -400 l79
-400 150 2 149 3 194 570 c106 314 193 576 193 583 0 10 -28 12 -121 10 l-121
-3 -137 -434 c-75 -239 -141 -436 -147 -438 -6 -2 -40 161 -83 389 -40 216
-77 415 -83 441 l-10 48 -121 -3 -121 -3 -154 -435 c-85 -239 -156 -437 -158
-439 -12 -13 -23 46 -84 441 l-66 433 -117 3 c-94 2 -117 0 -117 -11z" />
    <path
      fill="#006c8b"
      d="M8180 2317 c0 -2 -22 -257 -50 -568 -27 -310 -50 -572 -50 -581 0
-16 12 -18 120 -18 118 0 120 0 120 23 0 26 87 1028 95 1100 l6 47 -121 0
c-66 0 -120 -1 -120 -3z" />
    <path
      fill="#006c8b"
      d="M8710 2311 c0 -5 -22 -265 -50 -578 -27 -312 -50 -571 -50 -575 0 -5
52 -8 115 -8 l115 0 1 28 c1 96 66 746 74 748 6 2 107 -172 225 -386 l215
-390 133 0 c72 0 132 3 132 6 0 3 -69 125 -154 272 -85 147 -233 407 -329 577
l-175 310 -126 3 c-75 1 -126 -1 -126 -7z" />
    <path
      fill="#006c8b"
      d="M9506 2308 c-2 -7 -13 -124 -25 -260 l-20 -246 97 -168 c53 -92 98
-161 99 -153 3 19 73 811 73 827 0 17 -219 17 -224 0z" />
    <path
      fill="#006c8b"
      d="M11047 2312 c-3 -4 -8 -49 -12 -100 l-8 -92 177 0 177 0 -5 -42 c-4
-24 -22 -227 -41 -453 -19 -225 -37 -425 -39 -442 l-5 -33 123 0 122 0 38 453
c20 248 40 467 43 485 l5 32 179 0 179 0 0 48 c0 26 3 71 6 100 l7 52 -471 0
c-259 0 -473 -3 -475 -8z" />
    <path
      fill="#006c8b"
      d="M12180 2318 c0 -2 -23 -257 -50 -568 -28 -311 -50 -573 -50 -582 0
-17 26 -18 410 -18 l409 0 5 33 c3 17 7 58 10 90 l5 57 -288 0 c-158 0 -290 2
-292 5 -3 2 1 66 8 142 6 76 12 144 13 151 0 9 57 12 250 12 l249 0 5 33 c3
17 7 60 10 95 l6 62 -251 0 -251 0 7 97 c4 53 10 120 14 148 l6 50 291 3 291
2 7 53 c3 28 6 71 6 95 l0 42 -410 0 c-225 0 -410 -1 -410 -2z" />
    <path
      fill="#006c8b"
      d="M14240 2318 c0 -2 -23 -259 -50 -573 -27 -314 -50 -576 -50 -582 0
-10 31 -13 120 -13 118 0 120 0 120 23 0 12 9 117 20 232 11 116 20 213 20
217 0 4 85 9 189 10 l190 3 -57 100 -58 100 -122 3 c-116 2 -122 4 -122 24 0
24 27 341 35 411 l6 47 -121 0 c-66 0 -120 -1 -120 -2z" />
    <path
      fill="#006c8b"
      d="M14976 2308 c-5 -14 -10 -72 -61 -663 -19 -225 -37 -429 -40 -452
l-5 -43 120 0 c116 0 120 1 124 23 3 12 26 267 51 567 25 300 47 552 48 560 2
12 -18 15 -116 18 -89 2 -118 0 -121 -10z" />
  </g>
</svg>