<svg viewBox="0 0 125 60" id="zte" xmlns="http://www.w3.org/2000/svg"><path d="M3.6 59.9c-1.3-.2-2.5-1-3.1-2.1s-.6-2.5-.1-3.6c.1-.2 4.2-6.8 9.2-14.6s10.9-17.1 13.2-20.7c2.2-3.5 4.2-6.6 4.2-6.8.3-.8.2-1.7-.2-2.5-.2-.4-.8-.9-1.2-1.1-.6-.3-.2-.3-10.4-.3-10.5 0-9.9 0-10.9-.5C2.5 6.9 1.6 4.8 2.2 3 2.5 2 3.4.9 4.3.5 5.2 0 3.8 0 22.4 0h16.7l.4.1c1.3.4 2.3 1.5 2.7 2.7.1.4.1.6.1 1.2 0 .9-.1 1.4-.5 2-.1.2-6.1 9.5-13.3 20.9S15.4 47.6 15.4 47.8c-.2.4-.2 1.2-.1 1.6.2.9.8 1.6 1.6 2l.5.2h10.7c12 0 11 0 12 .5.6.3 1.4 1 1.7 1.7 1 1.9.4 4.2-1.3 5.4-.5.4-1.1.6-1.8.7-.6.1-34.5.1-35.1 0zm88.7 0c-.5-.1-1.3-.4-1.7-.8-.4-.3-.9-.9-1.2-1.4-.5-.9-.4 1.6-.4-27.9V3.2l.2-.5c.2-.6.7-1.3 1.1-1.7s1.4-.9 1.9-1h14.4c13.7 0 14 0 14.5.1.8.2 1.2.5 1.9 1.1.4.4.6.7.8 1 .5 1 .6 2.1.2 3.1-.2.6-.4 1-.9 1.5s-1 .9-1.7 1.1l-.5.2h-9.6c-9.1 0-9.7 0-10 .2-1.4.5-2.6 1.7-2.9 3-.1.6-.1 10.6 0 11.2.3 1.5 1.5 2.7 3.1 3.1.5.1.8.1 8.3.1 8.7 0 8.2 0 9.2.5s1.8 1.5 2.1 2.6c.2.6.2 1.7-.1 2.4-.4 1.2-1.4 2.2-2.6 2.6l-.4.1h-16.2l-.6.2c-1.1.4-1.9 1.1-2.4 2.1s-.5.7-.5 6.5c0 5 0 5.3.1 5.7.4 1.5 1.5 2.6 3 3 .4.1 1.1.1 9.5.1 6.5 0 9.2 0 9.7.1 1.8.2 3.2 1.5 3.6 3.3.1.6.1 1 0 1.7-.3 1.5-1.3 2.6-2.8 3.1l-.5.2h-14c-11.6.1-14.3.1-14.6 0zm-27.5 0c-.4-.1-1-.3-1.4-.5-.6-.3-1.5-1.2-1.8-1.8-.1-.2-.3-.6-.4-.9l-.2-.5V34c0-20.3 0-22.3-.1-22.6-.5-1.5-1.4-2.4-2.7-2.9l-.5-.2h-4.4c-4 0-4.4 0-4.8-.2-1.5-.5-2.6-1.7-2.9-3.1-.1-.4-.1-1.5 0-1.9.3-1.3 1.3-2.4 2.6-2.9l.5-.2h16.6C77 0 82.1 0 82.4.1c.6.1 1.5.6 2 1s1 1.2 1.2 1.8c.1.4.2.6.2 1.4 0 .7 0 .9-.2 1.3-.4 1.2-1.4 2.2-2.7 2.6-.4.1-.5.1-4.8.2-4.9 0-4.6 0-5.6.5-.9.5-1.7 1.4-2.1 2.5-.1.2-.1 4.1-.1 22.5 0 21.2 0 22.3-.1 22.7-.5 1.7-1.7 2.9-3.3 3.3-.5 0-1.6.1-2.1 0z" fill="#3cb9e9"/></svg>